<svg width="263" height="248" viewBox="0 0 263 248" fill="none" xmlns="http://www.w3.org/2000/svg">
<path d="M197.25 9.6875C197.581 9.79388 197.912 9.90026 198.253 10.0099C211.52 14.3748 222.887 23.4275 229.114 35.3669C232.217 41.6347 234.286 48.1094 234.34 55.0577C234.345 55.4691 234.35 55.8806 234.355 56.3045C234.371 57.6568 234.384 59.0091 234.397 60.3615C234.407 61.3021 234.418 62.2428 234.429 63.1834C234.458 65.6535 234.483 68.1236 234.508 70.5937C234.534 73.1166 234.562 75.6394 234.591 78.1622C234.646 83.1081 234.698 88.0541 234.748 93C235.128 93.122 235.507 93.2439 235.898 93.3695C236.401 93.5354 236.903 93.7013 237.421 93.8723C237.917 94.0342 238.413 94.1961 238.924 94.3629C243.456 96.1291 246.998 99.7184 249.218 103.788C250.838 107.553 250.988 111.163 250.94 115.161C250.929 116.249 250.94 117.335 250.953 118.422C250.963 123.032 250.615 127.312 247.576 131.116C246.916 131.725 246.253 132.331 245.585 132.933C244.89 134.092 244.89 134.092 245.296 135.014C245.518 135.536 245.518 135.536 245.744 136.069C247.108 140.143 246.782 144.423 246.77 148.65C246.773 149.626 246.777 150.602 246.781 151.577C246.79 154.216 246.789 156.855 246.786 159.494C246.785 161.698 246.788 163.902 246.791 166.107C246.798 171.304 246.797 176.501 246.792 181.699C246.786 187.063 246.793 192.426 246.807 197.79C246.818 202.398 246.822 207.005 246.819 211.613C246.817 214.364 246.818 217.115 246.827 219.866C246.835 222.45 246.833 225.033 246.823 227.617C246.821 228.566 246.823 229.515 246.828 230.464C246.835 231.757 246.829 233.049 246.82 234.342C246.825 234.72 246.83 235.097 246.835 235.486C246.812 237.08 246.671 238.146 245.777 239.514C244.004 240.542 242.394 240.518 240.374 240.496C239.745 240.501 239.745 240.501 239.102 240.505C237.693 240.513 236.285 240.507 234.876 240.501C233.867 240.503 232.858 240.507 231.849 240.511C229.107 240.52 226.364 240.516 223.622 240.51C220.755 240.505 217.887 240.51 215.02 240.513C210.204 240.516 205.389 240.512 200.573 240.503C195.002 240.492 189.431 240.495 183.861 240.506C179.081 240.515 174.302 240.516 169.522 240.511C166.666 240.508 163.81 240.508 160.954 240.514C158.269 240.52 155.584 240.516 152.899 240.505C151.913 240.502 150.926 240.503 149.94 240.507C148.595 240.512 147.251 240.506 145.907 240.496C145.318 240.503 145.318 240.503 144.718 240.509C142.972 240.485 141.946 240.365 140.504 239.403C139.621 238.176 139.459 237.581 139.452 236.112C139.445 235.673 139.438 235.234 139.431 234.782C139.433 234.305 139.436 233.827 139.438 233.335C139.433 232.829 139.428 232.323 139.422 231.802C139.407 230.13 139.406 228.458 139.406 226.786C139.398 225.627 139.389 224.467 139.38 223.308C139.358 220.257 139.347 217.205 139.34 214.154C139.33 211.04 139.308 207.927 139.287 204.813C139.249 198.704 139.222 192.594 139.205 186.484C138.792 186.944 138.378 187.404 137.953 187.877C137.4 188.49 136.847 189.102 136.294 189.714C136.022 190.016 135.751 190.318 135.472 190.629C133.825 192.449 132.117 194.158 130.312 195.839C128.446 198.032 128.216 199.339 128.474 202.123C128.519 202.65 128.519 202.65 128.566 203.188C128.675 204.403 128.802 205.615 128.932 206.828C128.978 207.283 129.025 207.738 129.073 208.206C129.5 212.341 129.96 216.473 130.431 220.604C131.609 230.993 131.609 230.993 131.707 235.312C131.725 236.126 131.725 236.126 131.745 236.958C131.423 238.737 130.989 239.182 129.445 240.25C127.913 240.539 126.402 240.511 124.844 240.496C124.139 240.501 124.139 240.501 123.419 240.505C121.84 240.513 120.261 240.507 118.682 240.501C117.552 240.503 116.421 240.507 115.291 240.511C112.217 240.52 109.144 240.516 106.07 240.51C102.857 240.505 99.6443 240.51 96.4314 240.513C90.6894 240.517 84.9475 240.511 79.2056 240.501C73.9987 240.492 68.7919 240.494 63.585 240.503C57.5394 240.513 51.4938 240.517 45.4482 240.511C42.2476 240.508 39.047 240.508 35.8464 240.514C32.8377 240.52 29.8291 240.516 26.8204 240.505C25.7147 240.502 24.6089 240.503 23.5031 240.507C21.9966 240.512 20.4907 240.506 18.9843 240.496C18.3238 240.503 18.3238 240.503 17.65 240.509C15.7708 240.486 14.6904 240.434 13.0786 239.471C12.0653 237.907 12.1018 236.851 12.157 235.024C12.1652 234.704 12.1734 234.384 12.1819 234.055C12.2952 230.558 12.6371 227.078 13.011 223.599C13.0847 222.886 13.1581 222.174 13.2312 221.462C13.4283 219.552 13.6301 217.643 13.8333 215.734C14.0031 214.135 14.1707 212.535 14.3384 210.935C14.7339 207.161 15.1334 203.389 15.5354 199.616C15.9494 195.731 16.356 191.846 16.7591 187.96C17.1068 184.612 17.4592 181.263 17.8153 177.916C18.0274 175.921 18.2377 173.927 18.4433 171.931C18.6365 170.06 18.8355 168.188 19.0391 166.317C19.1126 165.632 19.1841 164.947 19.2533 164.261C19.3483 163.323 19.4517 162.386 19.5554 161.45C19.6108 160.926 19.6662 160.402 19.7233 159.863C20.0733 158.2 20.6659 156.943 21.5742 155.484C23.0219 154.802 24.2312 154.946 25.8481 154.953C26.4937 154.954 27.1393 154.956 27.8045 154.957C28.8206 154.964 28.8206 154.964 29.8572 154.97C30.5454 154.972 31.2337 154.974 31.9219 154.976C33.6094 154.982 35.2969 154.99 36.9844 155C36.9798 154.714 36.9753 154.429 36.9706 154.135C36.9248 151.141 36.894 148.147 36.8715 145.152C36.8612 144.037 36.8473 142.923 36.8294 141.808C36.8042 140.198 36.7927 138.588 36.7837 136.978C36.7731 136.486 36.7625 135.995 36.7516 135.488C36.7502 131.083 37.821 126.891 40.9332 123.485C42.1728 122.129 42.1728 122.129 43.1484 120.609C42.8494 119.701 42.5109 118.804 42.1532 117.915C40.3525 112.987 40.3525 112.987 41.0938 110.438C41.9474 109.295 42.6268 108.599 44.1145 108.317C45.3379 108.243 46.5456 108.232 47.7715 108.243C48.2198 108.241 48.668 108.239 49.1299 108.237C50.0763 108.236 51.0228 108.239 51.9692 108.247C53.417 108.258 54.8635 108.248 56.3113 108.235C57.2316 108.236 58.1519 108.239 59.0723 108.243C59.5047 108.239 59.937 108.235 60.3825 108.231C63.3828 108.276 63.3828 108.276 64.9639 109.409C65.8297 110.542 66.5178 111.662 67.1626 112.92C67.3824 113.341 67.6023 113.762 67.8288 114.195C68.3184 115.281 68.3184 115.281 68.3184 116.25C68.7245 116.24 69.1306 116.23 69.549 116.219C71.4181 116.179 73.2872 116.154 75.1566 116.129C76.1146 116.105 76.1146 116.105 77.0919 116.08C83.4542 116.017 88.3237 117.391 92.9746 121.578C96.0196 124.586 98.09 128.036 98.778 132.189C99.5594 136.772 101.534 141.01 103.312 145.313C103.82 146.548 104.326 147.784 104.83 149.02C105.143 149.785 105.457 150.55 105.774 151.313C106.844 153.923 106.844 153.923 106.844 155C108.708 155 110.573 155 112.494 155C112.613 154.612 112.731 154.225 112.853 153.825C113.695 151.645 114.823 149.68 115.994 147.644C117.873 144.331 119.661 141.02 121.227 137.563C120.935 137.368 120.643 137.174 120.342 136.974C115.557 133.653 112.375 129.997 110.953 124.484C110.705 122.095 110.656 119.738 110.685 117.339C110.696 116.251 110.685 115.165 110.672 114.078C110.659 107.856 111.948 102.927 116.604 98.3281C118.923 96.2403 121.167 94.8636 124.204 93.8723C124.707 93.7064 125.209 93.5405 125.727 93.3695C126.106 93.2476 126.486 93.1256 126.877 93C126.879 92.4903 126.881 91.9807 126.883 91.4556C126.902 86.6181 126.932 81.7807 126.971 76.9433C126.992 74.4572 127.008 71.9712 127.016 69.485C127.024 67.0791 127.042 64.6735 127.066 62.2677C127.074 61.3566 127.078 60.4454 127.078 59.5343C127.093 44.3093 132.713 31.5646 144.206 20.7457C157.723 8.49937 179.506 3.95042 197.25 9.6875ZM46.7441 130.297C45.2217 133.551 45.1302 136.652 45.153 140.147C45.1535 140.525 45.154 140.903 45.1545 141.292C45.1572 142.693 45.1644 144.094 45.171 145.494C45.1816 148.631 45.1922 151.768 45.2031 155C54.3568 155 63.5104 155 72.9414 155C70.0701 147.157 70.0701 147.157 66.7774 139.5C66.2437 139.458 65.71 139.416 65.1601 139.373C58.7162 138.793 53.8874 137.282 49.3125 132.719C48.7753 131.925 48.2496 131.123 47.7715 130.297C47.4325 130.297 47.0934 130.297 46.7441 130.297Z" fill="#010000"/>
<path d="M145.387 131.561C145.962 131.564 146.537 131.566 147.129 131.569C148.951 131.58 150.772 131.604 152.593 131.629C153.834 131.639 155.075 131.647 156.316 131.655C159.345 131.677 162.374 131.709 165.402 131.75C165.908 132.603 166.414 133.455 166.92 134.308C167.562 135.303 168.269 136.007 169.223 136.745C169.651 137.087 169.651 137.087 170.088 137.436C173.258 139.443 176.523 139.177 180.203 139.167C180.793 139.175 181.384 139.183 181.993 139.191C186.15 139.193 189.789 138.912 193.044 136.2C193.462 135.866 193.462 135.866 193.889 135.525C194.935 134.379 195.524 133.105 196.223 131.75C200.362 131.705 204.502 131.671 208.641 131.65C210.564 131.64 212.486 131.626 214.409 131.604C216.267 131.583 218.126 131.571 219.984 131.566C220.69 131.563 221.396 131.556 222.102 131.545C226.912 131.476 230.764 131.721 234.521 134.745C234.84 135.105 235.158 135.466 235.486 135.837C235.978 136.375 235.978 136.375 236.48 136.925C238.432 139.543 238.488 141.825 238.46 144.923C238.461 145.368 238.461 145.812 238.461 146.27C238.46 147.735 238.452 149.2 238.444 150.665C238.442 151.683 238.441 152.7 238.44 153.717C238.436 156.392 238.426 159.067 238.414 161.742C238.404 164.472 238.399 167.203 238.394 169.933C238.383 175.289 238.365 180.644 238.344 186C232.919 186 227.495 186 221.906 186C221.886 182.939 221.886 182.939 221.866 179.817C221.85 178.188 221.832 176.56 221.812 174.932C221.792 173.214 221.775 171.496 221.767 169.778C221.758 167.806 221.732 165.834 221.706 163.863C221.705 162.94 221.705 162.94 221.704 161.999C221.694 161.427 221.683 160.855 221.673 160.265C221.668 159.762 221.664 159.258 221.659 158.74C221.324 157.083 220.738 156.505 219.338 155.484C217.797 155.161 217.797 155.161 216.256 155.484C214.79 156.532 214.26 157.106 213.94 158.833C213.937 159.661 213.937 159.661 213.935 160.505C213.927 161.14 213.92 161.774 213.913 162.428C213.915 163.13 213.918 163.832 213.921 164.534C213.916 165.274 213.911 166.014 213.905 166.754C213.89 168.762 213.889 170.77 213.889 172.779C213.888 174.878 213.874 176.977 213.862 179.076C213.842 183.051 213.831 187.025 213.824 191C213.815 196.371 213.789 201.742 213.764 207.113C213.725 215.575 213.708 224.038 213.688 232.5C191.99 232.5 170.293 232.5 147.938 232.5C147.924 227.103 147.911 221.706 147.897 216.145C147.884 212.732 147.871 209.319 147.855 205.907C147.83 200.486 147.807 195.066 147.798 189.645C147.792 185.697 147.778 181.75 147.755 177.803C147.744 175.712 147.736 173.622 147.736 171.531C147.737 169.564 147.727 167.597 147.711 165.629C147.707 164.907 147.706 164.185 147.709 163.462C147.712 162.476 147.702 161.491 147.69 160.505C147.689 159.953 147.687 159.401 147.685 158.833C147.365 157.106 146.835 156.532 145.369 155.484C143.828 155.161 143.828 155.161 142.287 155.484C141.098 156.224 141.098 156.224 140.232 157.422C140.01 159.039 140.01 159.039 140.154 160.852C140.175 161.537 140.193 162.223 140.209 162.908C140.22 163.263 140.23 163.619 140.241 163.985C140.448 173.49 140.448 173.49 137.532 176.855C136.371 177.958 135.173 178.988 133.898 179.973C132.548 181.074 131.535 182.34 130.441 183.669C129.156 185.183 127.841 186.588 126.363 187.938C126.146 186.303 125.933 184.668 125.721 183.033C125.653 182.51 125.586 181.987 125.516 181.448C125.073 177.972 124.671 174.494 124.299 171.011C124.254 170.599 124.21 170.187 124.164 169.762C123.941 167.698 123.723 165.633 123.511 163.567C123.428 162.798 123.346 162.028 123.263 161.259C123.228 160.907 123.194 160.556 123.158 160.193C122.996 158.717 122.835 157.545 122.111 156.216C121.513 154.255 122.591 152.803 123.536 151.085C123.734 150.711 123.932 150.336 124.137 149.951C124.558 149.158 124.985 148.368 125.416 147.58C126.067 146.386 126.701 145.186 127.333 143.983C132.499 134.285 132.499 134.285 137.856 132.141C140.34 131.421 142.81 131.514 145.387 131.561Z" fill="#3A84B2"/>
<path d="M28.252 162.75C50.2885 162.75 72.325 162.75 95.0293 162.75C96.8327 179.537 96.8327 179.537 97.5856 186.565C98.1057 191.42 98.6261 196.275 99.1482 201.13C99.5284 204.665 99.9077 208.201 100.286 211.737C100.486 213.609 100.687 215.481 100.889 217.353C101.079 219.115 101.268 220.878 101.456 222.64C101.558 223.595 101.661 224.55 101.764 225.504C101.825 226.074 101.885 226.644 101.948 227.231C102.027 227.972 102.027 227.972 102.108 228.729C102.213 229.982 102.221 231.242 102.221 232.5C75.4379 232.5 48.655 232.5 21.0605 232.5C22.2407 218.589 22.2407 218.589 22.7704 213.725C22.8316 213.152 22.8928 212.579 22.9559 211.989C23.1482 210.192 23.3424 208.396 23.5366 206.599C23.6581 205.467 23.7794 204.335 23.9007 203.202C24.3437 199.073 24.789 194.943 25.2341 190.813C26.23 181.553 27.2259 172.292 28.252 162.75Z" fill="#4F698F"/>
<path d="M196.4 47.3497C196.821 47.6484 196.821 47.6484 197.25 47.9531C197.7 48.2071 198.151 48.4611 198.615 48.7228C203.413 51.7451 208.514 55.4637 209.943 60.9884C210.58 64.8658 210.597 68.7415 210.509 72.6562C210.498 73.2167 210.488 73.7771 210.477 74.3545C210.202 84.2584 208.686 93.9668 200.846 101.234C194.519 106.569 186.72 108.935 178.357 108.668C170.892 108.225 163.865 104.595 158.923 99.3934C153.901 93.4823 151.78 86.8019 151.896 79.3259C151.899 78.7851 151.901 78.2443 151.903 77.6872C151.912 75.9798 151.931 74.2727 151.951 72.5654C151.958 71.3996 151.965 70.2337 151.972 69.0679C151.989 66.2275 152.014 63.3872 152.047 60.5469C157.634 58.7533 163.224 56.9675 168.818 55.1917C171.415 54.3669 174.011 53.5394 176.605 52.7058C179.108 51.9017 181.612 51.1048 184.119 50.3127C185.076 50.0089 186.032 49.7026 186.987 49.3937C188.323 48.9621 189.661 48.5397 191.001 48.1194C191.397 47.9891 191.793 47.8588 192.201 47.7245C194.897 46.8937 194.897 46.8937 196.4 47.3497Z" fill="#F5CAA8"/>
<path d="M207.058 23.127C217.213 30.5534 223.892 40.2723 226.016 52.3125C226.177 54.2747 226.202 56.1653 226.016 58.125C225.667 57.967 225.319 57.8091 224.96 57.6463C224.482 57.4346 224.004 57.223 223.511 57.0049C223.047 56.797 222.582 56.589 222.103 56.3748C220.675 55.8227 219.408 55.483 217.921 55.1411C215.049 54.3336 213.485 53.0054 211.5 50.9464C211.175 50.6271 210.85 50.3077 210.515 49.9787C209.487 48.9683 208.472 47.9477 207.459 46.9238C206.12 45.5705 204.769 44.2291 203.41 42.8937C203.11 42.5829 202.811 42.2721 202.502 41.9519C202.21 41.6657 201.918 41.3795 201.618 41.0846C201.369 40.8319 201.12 40.5792 200.863 40.3189C198.903 39.1929 196.803 39.041 194.59 39.4322C193.357 39.7616 192.155 40.1407 190.947 40.5424C190.261 40.7596 190.261 40.7596 189.561 40.9813C188.056 41.4594 186.557 41.9486 185.056 42.4377C184.005 42.7735 182.953 43.1085 181.901 43.4428C179.135 44.3235 176.373 45.2131 173.611 46.1053C169.198 47.53 164.78 48.9434 160.361 50.3526C158.824 50.8442 157.29 51.341 155.756 51.8385C147.318 54.5534 147.318 54.5534 143.338 55.0549C141.589 55.3275 140.181 55.9928 138.595 56.7324C138.026 56.9934 137.458 57.2544 136.871 57.5233C136.455 57.7219 136.038 57.9204 135.609 58.125C134.648 48.0301 139.528 38.0393 146.212 30.4002C146.612 29.9588 147.012 29.5173 147.424 29.0625C147.718 28.7359 148.012 28.4094 148.315 28.0729C163.269 12.8195 189.461 11.3733 207.058 23.127Z" fill="#AB6542"/>
<path d="M135.609 89.125C135.921 89.283 136.232 89.4409 136.552 89.6037C138.862 90.7395 140.8 91.5818 143.379 91.9707C145.346 92.4701 145.828 92.9233 146.992 94.5515C147.897 96.1348 148.702 97.7624 149.519 99.3865C150.576 101.352 152.043 102.987 153.588 104.625C154.035 105.114 154.035 105.114 154.491 105.613C156.06 107.216 157.281 108.334 159.443 109.194C163.201 110.736 163.201 110.736 164.375 112.375C164.759 114.373 164.665 116.317 164.568 118.339C164.547 119.154 164.547 119.154 164.525 119.986C164.489 121.325 164.439 122.662 164.375 124C164.065 124.003 163.754 124.006 163.435 124.009C160.184 124.04 156.934 124.081 153.684 124.127C152.473 124.143 151.263 124.157 150.052 124.168C148.305 124.184 146.558 124.21 144.811 124.237C144.276 124.24 143.741 124.243 143.189 124.246C138.486 124.334 134.42 125.158 130.473 127.663C130.007 127.953 129.54 128.244 129.06 128.543C127.876 129.303 127.876 129.303 126.877 130.297C125.345 130.205 124.519 129.975 123.325 129.054C123.035 128.735 122.745 128.416 122.447 128.087C122.154 127.777 121.861 127.466 121.56 127.147C118.993 123.482 118.919 120.044 118.947 115.766C118.937 115.215 118.927 114.664 118.916 114.097C118.919 110.093 119.51 107.419 122.348 104.402C122.73 104.096 123.112 103.79 123.506 103.475C124.077 103.004 124.077 103.004 124.66 102.525C127.205 100.801 129.779 100.513 132.822 100.148C134.124 99.9039 134.124 99.9039 134.647 98.9206C135.114 97.799 135.254 96.9469 135.308 95.7473C135.328 95.3602 135.348 94.9731 135.369 94.5742C135.384 94.1746 135.4 93.775 135.417 93.3633C135.437 92.9562 135.456 92.5491 135.477 92.1296C135.525 91.1283 135.568 90.1266 135.609 89.125Z" fill="#AC6542"/>
<path d="M226.016 89.125C226.041 89.7319 226.066 90.3388 226.092 90.9641C226.13 91.7638 226.169 92.5636 226.208 93.3633C226.224 93.7629 226.24 94.1625 226.256 94.5742C226.286 95.1549 226.286 95.1549 226.317 95.7473C226.333 96.1024 226.349 96.4576 226.366 96.8234C226.555 98.0018 226.859 98.7865 227.557 99.7812C228.873 100.143 230.1 100.403 231.441 100.629C235.672 101.485 238.433 102.941 240.964 106.357C242.894 109.413 242.758 112.506 242.71 115.978C242.722 116.832 242.722 116.832 242.734 117.704C242.716 121.516 242.352 125.064 239.371 127.875C237.523 127.641 236.045 126.793 234.435 125.955C230.294 124.264 226.175 124.321 221.73 124.284C221.022 124.275 220.313 124.265 219.605 124.255C217.754 124.231 215.903 124.211 214.052 124.193C212.158 124.174 210.264 124.149 208.37 124.125C204.664 124.078 200.957 124.037 197.25 124C197.155 122.117 197.097 120.235 197.045 118.35C197.004 117.551 197.004 117.551 196.962 116.736C196.883 112.877 196.883 112.877 197.924 111.452C199.283 110.341 200.844 109.497 202.515 108.875C207.817 106.655 211.051 101.52 213.688 96.875C213.947 96.1595 214.205 95.4432 214.458 94.7256C215.333 93.3264 216.035 92.7338 217.638 92.1542C218.185 91.9537 218.185 91.9537 218.742 91.7492C219.851 91.3763 220.964 91.0274 222.085 90.6879C223.184 90.3397 224.949 89.125 226.016 89.125Z" fill="#AC6542"/>
<path d="M103.248 162.75C107.316 162.75 111.385 162.75 115.576 162.75C116.515 171.487 117.453 180.223 118.389 188.96C118.824 193.017 119.259 197.073 119.695 201.13C120.075 204.665 120.455 208.201 120.833 211.737C121.033 213.609 121.234 215.481 121.436 217.353C121.626 219.115 121.815 220.878 122.002 222.64C122.104 223.595 122.208 224.55 122.311 225.504C122.372 226.074 122.432 226.644 122.495 227.231C122.548 227.725 122.601 228.219 122.655 228.729C122.76 229.982 122.768 231.242 122.768 232.5C118.699 232.5 114.631 232.5 110.439 232.5C108.708 217.212 107.022 201.92 105.39 186.622C105.204 184.876 105.017 183.131 104.829 181.386C104.605 179.306 104.383 177.227 104.163 175.148C104.081 174.377 103.998 173.606 103.915 172.835C103.801 171.771 103.688 170.708 103.576 169.645C103.513 169.047 103.449 168.449 103.383 167.834C103.248 166.143 103.248 164.445 103.248 162.75Z" fill="#395277"/>
<path d="M221.906 193.75C227.331 193.75 232.755 193.75 238.344 193.75C238.344 206.537 238.344 219.325 238.344 232.5C232.919 232.5 227.495 232.5 221.906 232.5C221.906 219.713 221.906 206.925 221.906 193.75Z" fill="#F7CCA9"/>
<path d="M172.594 115.281C173.332 115.399 173.332 115.399 174.085 115.52C176.425 115.834 178.741 115.837 181.101 115.826C181.737 115.829 181.737 115.829 182.385 115.832C182.799 115.831 183.213 115.831 183.64 115.83C184.194 115.829 184.194 115.829 184.76 115.828C186.208 115.752 187.605 115.524 189.031 115.281C189.076 117.491 189.103 119.701 189.128 121.911C189.14 122.538 189.153 123.164 189.167 123.81C189.172 124.414 189.177 125.018 189.182 125.64C189.19 126.196 189.198 126.751 189.206 127.324C189.011 129.024 188.597 129.921 187.49 131.266C185.21 131.982 182.977 131.859 180.588 131.871C180.097 131.881 179.607 131.891 179.102 131.901C178.629 131.904 178.156 131.906 177.668 131.909C177.237 131.913 176.806 131.918 176.361 131.923C174.878 131.709 174.189 131.264 173.107 130.297C172.533 128.671 172.535 127.448 172.544 125.735C172.545 125.128 172.547 124.521 172.549 123.895C172.553 123.26 172.557 122.626 172.562 121.972C172.564 121.325 172.567 120.678 172.569 120.031C172.575 118.448 172.583 116.865 172.594 115.281Z" fill="#EBC2A1"/>
<path d="M50.8535 116.25C53.5657 116.25 56.2779 116.25 59.0723 116.25C59.5808 117.329 60.0893 118.408 60.6133 119.52C61.4943 121.141 62.3444 122.626 64.1084 123.48C65.5069 123.889 66.9053 124.125 68.347 124.356C71.7931 124.929 73.9281 126.215 76.0234 128.844C78.3525 132.027 78.331 135 78.2065 138.773C78.1973 139.31 78.188 139.847 78.1785 140.401C78.1544 141.715 78.1207 143.029 78.0781 144.344C76.9271 143.258 76.6561 142.526 76.1238 141.089C75.9509 140.638 75.7781 140.186 75.6001 139.721C75.2407 138.768 74.8848 137.813 74.5326 136.857C74.3584 136.405 74.1843 135.954 74.0049 135.489C73.85 135.074 73.6951 134.659 73.5356 134.231C72.8127 132.98 72.3019 132.691 70.8867 132.234C69.4654 132.139 68.0711 132.082 66.6489 132.053C62.2163 131.87 59.4223 131.221 56.1829 128.238C53.294 124.939 51.9368 120.336 50.8535 116.25Z" fill="#F3C8A6"/>
<path d="M83.2148 124.969C86.6277 126.884 89.0449 129.153 90.4062 132.719C90.5533 133.488 90.6794 134.26 90.7875 135.035C91.4871 138.882 93.0771 142.421 94.5798 146.039C95.0146 147.093 95.4478 148.148 95.8782 149.204C96.1441 149.855 96.4126 150.506 96.6842 151.156C97.2429 152.519 97.5977 153.523 97.5977 155C93.8684 155 90.1391 155 86.2969 155C86.2836 153.378 86.2704 151.756 86.2567 150.084C86.237 148.5 86.2138 146.917 86.1903 145.333C86.1758 144.238 86.1649 143.143 86.1577 142.049C86.1466 140.469 86.1226 138.889 86.0962 137.309C86.0956 136.825 86.095 136.342 86.0943 135.844C86.0304 132.91 85.5086 130.635 84.2171 127.96C83.7561 126.966 83.4589 126.026 83.2148 124.969Z" fill="#F2C7A5"/>
<path d="M217.797 62.9688C221.287 64.0657 221.287 64.0657 223.062 66.0264C223.404 66.3941 223.745 66.7619 224.097 67.1408C226.264 69.952 226.395 72.6734 226.016 76.0469C225.088 79.703 222.598 82.2036 219.338 84.2812C218.829 84.2812 218.321 84.2812 217.797 84.2812C217.797 77.2481 217.797 70.215 217.797 62.9688Z" fill="#EAC1A0"/>
<path d="M143.828 62.9688C143.828 70.0019 143.828 77.035 143.828 84.2812C140.59 83.5179 138.39 81.533 136.669 78.8623C135.36 75.5949 134.829 72.0153 136.348 68.7207C137.841 66.2384 140.661 62.9688 143.828 62.9688Z" fill="#EAC1A0"/>
<path d="M197.25 69.4473C199.343 69.8584 200.098 70.5624 201.359 72.1719C201.68 73.625 201.68 73.625 201.359 75.0781C200.098 76.6876 199.343 77.3916 197.25 77.8027C195.157 77.3916 194.402 76.6876 193.141 75.0781C192.82 73.625 192.82 73.625 193.141 72.1719C194.402 70.5624 195.157 69.8584 197.25 69.4473Z" fill="#0B0907"/>
<path d="M164.375 69.4473C166.468 69.8584 167.223 70.5624 168.484 72.1719C168.805 73.625 168.805 73.625 168.484 75.0781C167.223 76.6876 166.468 77.3916 164.375 77.8027C162.282 77.3916 161.527 76.6876 160.266 75.0781C159.945 73.625 159.945 73.625 160.266 72.1719C161.527 70.5624 162.282 69.8584 164.375 69.4473Z" fill="#0B0907"/>
</svg>
