<svg width="512" height="512" viewBox="0 0 512 512" fill="none" xmlns="http://www.w3.org/2000/svg">
<g clip-path="url(#clip0_111_82)">
<path d="M16.9825 22.7326C17.9005 22.728 18.8185 22.7235 19.7643 22.7188C22.8473 22.7062 25.9301 22.7078 29.0132 22.7095C31.2208 22.7035 33.4283 22.6967 35.6359 22.6891C41.638 22.6714 47.64 22.6668 53.642 22.6655C58.6496 22.6636 63.6572 22.6562 68.6647 22.6491C79.8024 22.6338 90.94 22.6278 102.078 22.6292C103.08 22.6293 103.08 22.6293 104.103 22.6294C104.772 22.6295 105.441 22.6296 106.13 22.6296C116.973 22.6305 127.817 22.6113 138.66 22.5831C149.795 22.5544 160.93 22.5409 172.066 22.5423C178.317 22.5428 184.568 22.5371 190.819 22.5159C196.697 22.4966 202.576 22.4964 208.454 22.511C210.613 22.5131 212.771 22.5083 214.929 22.4963C217.874 22.4809 220.818 22.4901 223.764 22.5055C225.046 22.4901 225.046 22.4901 226.355 22.4743C231.691 22.5362 234.801 23.4004 239 27C241.642 31.732 242.377 35.5823 242.388 40.9575C242.396 41.9419 242.396 41.9419 242.404 42.9461C242.417 45.0919 242.409 47.237 242.398 49.3828C242.4 50.8854 242.403 52.388 242.407 53.8906C242.412 57.0292 242.405 60.1676 242.391 63.3062C242.374 67.3222 242.384 71.3377 242.402 75.3537C242.413 78.4525 242.409 81.5511 242.401 84.6498C242.399 86.1305 242.402 87.6113 242.409 89.092C242.417 91.1621 242.405 93.2312 242.388 95.3013C242.386 96.4771 242.383 97.6529 242.381 98.8643C241.952 102.398 241.279 104.267 239 107C236.525 107.495 236.525 107.495 234 108C234 114.27 234 120.54 234 127C235.65 127.33 237.3 127.66 239 128C242.204 131.813 242.377 135.078 242.385 139.946C242.39 140.624 242.396 141.303 242.401 142.002C242.411 143.468 242.414 144.935 242.411 146.401C242.406 148.721 242.42 151.04 242.439 153.361C242.482 159.119 242.493 164.878 242.505 170.636C242.517 175.51 242.54 180.384 242.58 185.257C242.594 187.544 242.589 189.829 242.585 192.116C242.594 193.515 242.604 194.914 242.615 196.313C242.617 197.535 242.619 198.757 242.621 200.015C242.739 203.012 242.739 203.012 244.524 204.918C245.011 205.275 245.498 205.632 246 206C246.376 205.349 246.752 204.697 247.139 204.026C253.029 193.817 258.919 183.608 264.809 173.398C265.42 172.339 266.03 171.28 266.66 170.189C267.891 168.056 269.122 165.922 270.354 163.789C273.247 158.777 276.138 153.762 279.017 148.741C280.025 146.983 281.035 145.225 282.045 143.467C283.304 141.275 284.56 139.083 285.814 136.889C300.048 112.127 300.048 112.127 312.785 108.469C319.912 106.961 326.399 108.073 333 111C340.601 116.238 344.857 123.016 349.188 131C350.163 132.744 351.138 134.488 352.115 136.231C353.108 138.006 354.094 139.784 355.08 141.563C357.957 146.712 360.947 151.792 363.938 156.875C367.794 163.46 371.617 170.063 375.398 176.691C375.951 177.661 375.951 177.661 376.516 178.65C378.325 181.824 380.132 185 381.935 188.177C382.582 189.314 383.228 190.45 383.895 191.621C384.471 192.636 385.046 193.651 385.64 194.697C386.805 196.888 386.805 196.888 388 198C389.594 198.102 391.192 198.136 392.788 198.142C393.811 198.149 394.833 198.156 395.886 198.163C397.003 198.167 398.119 198.171 399.27 198.176C401.627 198.199 403.984 198.223 406.342 198.248C410.063 198.283 413.784 198.312 417.506 198.326C421.094 198.342 424.681 198.382 428.27 198.426C429.364 198.424 430.458 198.422 431.585 198.42C445.119 198.631 456.306 203.176 465.844 212.875C473.018 221.66 476.142 232.33 476.098 243.488C476.096 244.543 476.096 244.543 476.093 245.619C476.088 247.85 476.075 250.081 476.063 252.312C476.057 253.831 476.053 255.35 476.049 256.869C476.038 260.579 476.021 264.29 476 268C476.696 267.99 477.391 267.979 478.108 267.968C481.28 267.927 484.453 267.901 487.625 267.875C489.267 267.85 489.267 267.85 490.941 267.824C503.467 267.748 503.467 267.748 508.813 272.5C513.398 277.74 512.335 284.222 512.405 290.865C512.427 292.405 512.461 293.944 512.508 295.483C512.944 309.907 512.944 309.907 509.16 314.488C506.068 317.391 503.163 318.129 498.988 318.098C498.231 318.094 497.474 318.091 496.693 318.088C495.908 318.079 495.122 318.071 494.313 318.062C493.515 318.058 492.718 318.053 491.896 318.049C489.931 318.037 487.965 318.019 486 318C485.833 319.074 485.833 319.074 485.662 320.17C484.431 327.832 482.888 335.383 481.174 342.95C480.898 344.184 480.621 345.419 480.336 346.69C479.585 350.041 478.829 353.39 478.073 356.739C477.276 360.271 476.482 363.805 475.688 367.338C474.354 373.273 473.017 379.207 471.679 385.141C470.141 391.959 468.607 398.778 467.074 405.597C465.59 412.204 464.103 418.811 462.615 425.418C461.987 428.207 461.359 430.996 460.732 433.785C458.842 442.194 456.937 450.601 455 459C454.792 459.901 454.585 460.802 454.371 461.73C453.843 464.003 453.303 466.273 452.755 468.542C452.476 469.708 452.197 470.873 451.909 472.074C449.664 479.299 445.225 483.37 438.832 487.09C435.503 488.744 432.794 489.139 429.133 489.193C428.145 489.209 427.157 489.225 426.139 489.242C421.637 489.286 417.134 489.327 412.631 489.35C410.254 489.367 407.876 489.394 405.499 489.432C402.073 489.487 398.649 489.509 395.223 489.523C394.159 489.546 393.095 489.569 392 489.592C384.641 489.571 384.641 489.571 381.299 486.592C380 484 380 484 380 482C373.73 482 367.46 482 361 482C360.34 483.65 359.68 485.3 359 487C356.277 489.723 354.817 489.256 351.005 489.267C349.726 489.276 348.448 489.284 347.13 489.293C345.705 489.293 344.28 489.292 342.855 489.291C341.36 489.296 339.866 489.303 338.371 489.311C334.302 489.329 330.234 489.333 326.166 489.334C322.769 489.336 319.372 489.344 315.975 489.351C307.957 489.367 299.938 489.372 291.92 489.371C283.655 489.369 275.39 489.39 267.125 489.422C260.028 489.448 252.931 489.459 245.833 489.458C241.595 489.457 237.358 489.463 233.12 489.484C229.129 489.503 225.139 489.504 221.148 489.489C219.687 489.487 218.226 489.492 216.765 489.504C207.122 489.579 200.741 489.094 193.25 482.625C187.533 475.955 185.802 470.349 183.934 461.793C183.658 460.579 183.382 459.365 183.098 458.114C182.354 454.823 181.62 451.53 180.892 448.235C180.131 444.808 179.358 441.383 178.585 437.959C177.327 432.371 176.076 426.78 174.831 421.189C173.124 413.533 171.384 405.885 169.637 398.238C168.874 394.888 168.112 391.537 167.35 388.186C166.868 386.07 166.386 383.954 165.902 381.839C165.234 378.915 164.573 375.989 163.914 373.062C163.718 372.21 163.522 371.358 163.32 370.479C163.144 369.693 162.968 368.907 162.788 368.098C162.634 367.422 162.481 366.747 162.323 366.051C161.949 363.678 161.98 361.4 162 359C161.207 359.005 160.413 359.009 159.596 359.014C140.292 359.124 120.987 359.207 101.682 359.259C92.3467 359.285 83.0113 359.32 73.6758 359.377C65.5387 359.427 57.4018 359.459 49.2646 359.47C44.9562 359.477 40.6481 359.492 36.3397 359.529C32.2833 359.563 28.2275 359.573 24.1709 359.566C22.6834 359.567 21.1958 359.577 19.7084 359.596C7.06621 359.751 7.06621 359.751 3.13064 356.589C0.159957 352.979 -0.125793 351.332 -0.134222 346.739C-0.13868 345.617 -0.143139 344.494 -0.147732 343.337C-0.147547 342.094 -0.147363 340.85 -0.147173 339.569C-0.15085 338.256 -0.154526 336.943 -0.158314 335.59C-0.168351 331.933 -0.172054 328.275 -0.174704 324.618C-0.178602 320.679 -0.18818 316.739 -0.196917 312.8C-0.216695 303.281 -0.22675 293.761 -0.235645 284.242C-0.240026 279.762 -0.245392 275.282 -0.250633 270.802C-0.267646 255.916 -0.282141 241.03 -0.289381 226.144C-0.291291 222.28 -0.293212 218.415 -0.295168 214.551C-0.295652 213.59 -0.296136 212.629 -0.296635 211.64C-0.304939 196.072 -0.330282 180.504 -0.362749 164.936C-0.39579 148.963 -0.413828 132.991 -0.417027 117.018C-0.419194 108.045 -0.427982 99.073 -0.453487 90.1006C-0.475154 82.461 -0.483265 74.8215 -0.47352 67.1818C-0.468964 63.2824 -0.47094 59.3833 -0.490282 55.484C-0.511055 51.2599 -0.500966 47.0364 -0.487749 42.8122C-0.498718 41.5752 -0.509687 40.3383 -0.520988 39.0638C-0.512408 37.9335 -0.503827 36.8031 -0.494986 35.6384C-0.495962 34.6633 -0.496939 33.6881 -0.497946 32.6834C0.153082 29.1751 1.52573 27.534 4 25C8.06947 22.363 12.2807 22.7156 16.9825 22.7326ZM319 192C317.56 194.273 316.175 196.556 314.813 198.875C313.998 200.251 313.182 201.628 312.367 203.004C311.765 204.023 311.765 204.023 311.151 205.063C309.14 208.448 307.066 211.795 304.996 215.145C303.842 216.943 303.842 216.943 304 219C314.23 219 324.46 219 335 219C327.882 205.283 327.882 205.283 320 192C319.67 192 319.34 192 319 192Z" fill="#010101"/>
<path d="M168 318C172.999 317.851 177.996 317.742 182.996 317.67C184.695 317.64 186.393 317.599 188.091 317.547C190.542 317.474 192.99 317.44 195.441 317.414C196.193 317.383 196.944 317.352 197.718 317.32C203.101 317.317 205.707 318.808 209.534 322.565C214.381 327.308 221.122 328.255 227.625 328.375C237.775 327.995 246.584 325.416 254 318C256.248 317.734 256.248 317.734 259.109 317.712C260.191 317.7 261.273 317.687 262.388 317.673C263.58 317.67 264.773 317.666 266.002 317.662C267.254 317.65 268.506 317.639 269.796 317.627C273.239 317.598 276.682 317.579 280.124 317.567C282.278 317.559 284.431 317.548 286.584 317.538C293.328 317.505 300.071 317.481 306.815 317.469C314.586 317.455 322.357 317.411 330.128 317.341C336.14 317.289 342.153 317.265 348.166 317.26C351.754 317.257 355.341 317.242 358.928 317.199C362.94 317.151 366.951 317.16 370.963 317.174C372.139 317.152 373.316 317.13 374.528 317.107C381.898 317.19 386.14 318.651 391.892 323.309C398.404 328.534 405.934 328.87 414 328C421.866 326.559 421.866 326.559 428.537 322.526C434.341 316.982 440.569 317.329 448.145 317.473C449.763 317.523 451.382 317.574 453 317.625C454.65 317.655 456.299 317.683 457.949 317.707C461.967 317.773 465.983 317.876 470 318C469.389 324.983 468.026 331.523 466.312 338.312C464.092 347.325 462.03 356.353 460.125 365.438C457.749 376.727 455.154 387.953 452.482 399.175C450.158 408.947 447.946 418.733 445.875 428.562C443.94 437.708 441.944 446.836 439.812 455.938C439.575 456.98 439.337 458.023 439.091 459.098C436.857 468.49 436.857 468.49 434 472C431.073 473.779 428.865 474.255 425.463 474.287C424.572 474.301 423.681 474.314 422.763 474.328C421.809 474.333 420.854 474.338 419.871 474.344C418.885 474.358 417.899 474.373 416.883 474.388C412.666 474.45 408.45 474.49 404.233 474.532C401.154 474.565 398.075 474.611 394.996 474.656C393.562 474.664 393.562 474.664 392.098 474.672C391.21 474.686 390.323 474.699 389.408 474.713C388.627 474.72 387.847 474.727 387.042 474.735C384.69 474.887 384.69 474.887 382 477C381.34 478.65 380.68 480.3 380 482C373.73 482 367.46 482 361 482C360.01 480.02 359.02 478.04 358 476C355.299 474.649 353.207 474.875 350.181 474.875C348.942 474.873 347.702 474.87 346.426 474.868C345.044 474.87 343.663 474.872 342.282 474.874C340.834 474.873 339.385 474.871 337.936 474.868C334.812 474.864 331.687 474.862 328.563 474.862C323.621 474.861 318.679 474.848 313.738 474.832C312.904 474.83 312.071 474.827 311.212 474.825C309.507 474.819 307.802 474.814 306.097 474.809C294.59 474.774 283.083 474.747 271.575 474.75C263.817 474.751 256.058 474.735 248.3 474.699C244.194 474.68 240.088 474.671 235.982 474.683C232.118 474.695 228.254 474.683 224.389 474.654C222.973 474.647 221.556 474.649 220.14 474.66C208.106 474.746 208.106 474.746 204.18 471.602C202.022 469.026 201.067 467.534 200.363 464.289C200.142 463.325 199.921 462.361 199.694 461.368C199.465 460.257 199.236 459.145 199 458C198.709 456.682 198.417 455.364 198.123 454.046C197.293 450.298 196.492 446.544 195.698 442.788C193.229 431.116 190.708 419.464 187.875 407.875C185.571 398.448 183.41 388.998 181.324 379.521C179.972 373.378 178.605 367.238 177.207 361.105C173.941 346.773 170.789 332.434 168 318Z" fill="#0593FC"/>
<path d="M50 74C108.08 74 166.16 74 226 74C226.33 83.24 226.66 92.48 227 102C229.604 106.348 229.604 106.348 234 107C234 113.93 234 120.86 234 128C232.35 128.66 230.7 129.32 229 130C226.314 132.686 226.728 134.07 226.681 137.827C226.661 139.048 226.641 140.269 226.621 141.527C226.609 142.864 226.597 144.202 226.586 145.539C226.567 146.904 226.548 148.269 226.527 149.633C226.476 153.227 226.436 156.821 226.399 160.415C226.359 164.081 226.308 167.748 226.258 171.414C226.161 178.609 226.077 185.805 226 193C224.413 192.961 224.413 192.961 222.794 192.921C218.813 192.829 214.833 192.772 210.851 192.725C209.138 192.7 207.426 192.666 205.713 192.623C193.768 192.326 183.57 192.897 173.562 200.312C167.819 206.337 164.44 212.885 163.453 221.188C163.304 222.446 163.154 223.704 163 225C161.923 225.005 161.923 225.005 160.825 225.011C154.057 225.049 147.289 225.106 140.52 225.184C137.041 225.223 133.562 225.256 130.082 225.271C126.08 225.289 122.08 225.339 118.078 225.391C116.206 225.392 116.206 225.392 114.296 225.394C112.555 225.424 112.555 225.424 110.778 225.454C109.246 225.467 109.246 225.467 107.683 225.481C104.277 226.14 103.053 227.24 101 230C101.143 235.057 101.143 235.057 104 239C106.588 239.332 106.588 239.332 109.643 239.319C110.824 239.339 112.005 239.359 113.222 239.379C114.502 239.391 115.783 239.402 117.102 239.414C118.408 239.433 119.715 239.453 121.061 239.473C124.537 239.524 128.012 239.564 131.487 239.601C135.033 239.641 138.579 239.692 142.125 239.742C149.083 239.84 156.041 239.92 163 240C163 249.57 163 259.14 163 269C149.375 269.188 149.375 269.188 145.111 269.208C137.806 269.202 137.806 269.202 131.227 271.926C128.226 276.069 127.565 279.982 127 285C125.978 285.022 125.978 285.022 124.936 285.044C121.853 285.119 118.77 285.215 115.688 285.312C114.616 285.335 113.544 285.358 112.439 285.381C111.411 285.416 110.383 285.452 109.324 285.488C108.376 285.514 107.428 285.541 106.452 285.568C103.604 286.07 102.68 286.677 101 289C100.498 292.372 100.519 294.221 102.324 297.145C106.614 300.12 111.148 299.679 116.25 299.75C117.281 299.78 118.312 299.809 119.375 299.84C121.917 299.91 124.458 299.963 127 300C127.077 301.031 127.077 301.031 127.155 302.082C127.231 302.983 127.308 303.884 127.387 304.812C127.459 305.706 127.53 306.599 127.604 307.52C128.152 310.952 129.46 312.677 132 315C135.889 317.656 140.202 317.444 144.75 317.625C145.939 317.683 145.939 317.683 147.152 317.742C149.101 317.836 151.051 317.919 153 318C153.84 321.582 154.671 325.166 155.5 328.75C155.858 330.274 155.858 330.274 156.223 331.828C156.561 333.298 156.561 333.298 156.906 334.797C157.116 335.698 157.325 336.598 157.541 337.526C158 340 158 340 158 344C122.36 344 86.72 344 50 344C50 335.42 50 326.84 50 318C62.125 317.688 62.125 317.688 65.9146 317.612C73.9268 317.444 73.9268 317.444 81 314C84.132 309.894 84.4545 306.254 84.4336 301.25C84.4388 300.514 84.4441 299.779 84.4495 299.021C84.4559 297.471 84.4546 295.921 84.446 294.371C84.4375 292.007 84.4663 289.645 84.498 287.281C84.4997 285.771 84.4991 284.26 84.4961 282.75C84.5073 282.048 84.5186 281.346 84.5301 280.622C84.4809 277.135 84.0766 275.123 82.219 272.141C78.2401 268.302 75.4084 267.747 69.9219 267.586C68.1816 267.528 68.1816 267.528 66.4062 267.469C65.1997 267.438 63.9931 267.407 62.75 267.375C60.917 267.317 60.917 267.317 59.0469 267.258C56.0314 267.164 53.0159 267.078 50 267C50 264.03 50 261.06 50 258C50.7562 257.98 51.5124 257.96 52.2915 257.94C55.7363 257.844 59.1806 257.735 62.625 257.625C64.4097 257.579 64.4097 257.579 66.2305 257.531C67.3842 257.493 68.5379 257.454 69.7266 257.414C70.7844 257.383 71.8422 257.351 72.9321 257.319C76.3368 256.965 78.9188 256.521 82 255C85.1707 248.809 84.3355 241.519 84.3157 234.723C84.3125 232.44 84.336 230.159 84.3613 227.877C84.3636 226.417 84.3643 224.956 84.3633 223.496C84.3663 222.178 84.3692 220.86 84.3723 219.502C83.9774 215.788 83.2696 213.93 81 211C74.8831 207.281 68.5746 207.458 61.5625 207.312C60.4494 207.278 59.3363 207.244 58.1895 207.209C55.4597 207.127 52.7303 207.058 50 207C50 204.36 50 201.72 50 199C50.7259 198.985 51.4518 198.971 52.1997 198.956C55.5087 198.881 58.8166 198.784 62.125 198.688C63.2671 198.665 64.4092 198.642 65.5859 198.619C73.77 198.482 73.77 198.482 81 195C84.1145 190.907 84.4673 187.273 84.4688 182.285C84.4764 181.552 84.484 180.818 84.4918 180.063C84.5026 178.517 84.5055 176.972 84.501 175.426C84.5 173.072 84.5417 170.722 84.5859 168.369C84.5911 166.862 84.5938 165.355 84.5938 163.848C84.6101 163.151 84.6265 162.454 84.6434 161.735C84.5902 157.933 83.9765 155.506 81.6504 152.572C77.8753 148.909 75.0888 148.857 70.0195 148.684C68.8562 148.642 67.6928 148.6 66.4941 148.557C65.2792 148.517 64.0643 148.478 62.8125 148.438C61.586 148.394 60.3594 148.351 59.0957 148.307C56.0639 148.2 53.032 148.1 50 148C50 142.72 50 137.44 50 132C51.32 132.66 52.64 133.32 54 134C56.9575 134.583 56.9575 134.583 60 134C65.7574 128.785 70.6343 122.58 75.6187 116.637C76.7681 115.275 77.9382 113.93 79.1133 112.59C81.855 109.298 83.3528 106.975 83.5625 102.625C83.3769 101.429 83.1912 100.232 83 99C79.4818 96.6545 78.1422 96.4201 74 97C69.4601 101.071 65.7245 105.869 61.9297 110.623C60.6838 112.137 59.3473 113.576 58 115C57.01 115 56.02 115 55 115C53.35 113.35 51.7 111.7 50 110C50 98.12 50 86.24 50 74Z" fill="#E8F4FD"/>
<path d="M15 73C84.63 73 154.26 73 226 73C226 73.33 226 73.66 226 74C167.92 74 109.84 74 50 74C50.33 85.88 50.66 97.76 51 110C52.98 111.65 54.96 113.3 57 115C61.7729 109.756 66.3115 104.434 70.5547 98.75C72 97 72 97 74 96C77.192 95.7224 79.4071 95.7504 82.375 97C84.4638 99.5708 84.4271 101.631 84.3525 104.874C83.7474 108.524 81.5501 110.991 79.1875 113.688C78.4529 114.571 78.4529 114.571 77.7034 115.471C76.6748 116.703 75.6374 117.927 74.5918 119.144C73.0023 120.997 71.4435 122.873 69.8906 124.758C62.3875 133.806 62.3875 133.806 60 135C55.0489 135.431 54.2138 135.16 50 132C50 137.28 50 142.56 50 148C51.8189 147.965 53.6377 147.93 55.5117 147.895C57.9036 147.866 60.2956 147.839 62.6875 147.812C63.8857 147.787 65.0839 147.762 66.3184 147.736C67.4753 147.727 68.6322 147.717 69.8242 147.707C70.8873 147.691 71.9504 147.676 73.0457 147.659C77.6213 148.187 80.0213 150.053 83.2793 153.205C85.4539 156.737 85.5779 159.688 85.5312 163.715C85.537 164.815 85.537 164.815 85.5428 165.937C85.5456 167.483 85.5382 169.028 85.5215 170.574C85.5001 172.927 85.5213 175.278 85.5469 177.631C85.5442 179.138 85.5391 180.645 85.5312 182.152C85.5393 182.849 85.5474 183.546 85.5558 184.265C85.4605 189.282 84.1276 192.125 81 196C75.4336 200.241 68.7925 199.334 62.125 199.188C60.377 199.167 60.377 199.167 58.5938 199.146C55.7287 199.111 52.8646 199.062 50 199C50 201.64 50 204.28 50 207C50.6851 206.979 51.3703 206.958 52.0762 206.937C55.2173 206.853 58.3582 206.801 61.5 206.75C62.5777 206.716 63.6553 206.683 64.7656 206.648C71.1298 206.571 76.9379 206.724 82 211C85.1891 215.109 85.3853 218.371 85.3984 223.496C85.4013 224.207 85.4042 224.918 85.4071 225.651C85.4092 227.15 85.4037 228.648 85.3911 230.147C85.3751 232.427 85.391 234.706 85.4102 236.986C85.4082 238.448 85.4043 239.91 85.3984 241.371C85.3951 242.69 85.3917 244.01 85.3882 245.369C84.9719 249.263 84.0404 251.68 82 255C76.4557 259.393 69.3352 258.329 62.625 258.188C61.412 258.174 60.199 258.16 58.9492 258.146C55.9657 258.111 52.9831 258.062 50 258C50 260.97 50 263.94 50 267C50.7562 266.979 51.5124 266.958 52.2915 266.937C55.7359 266.853 59.18 266.801 62.625 266.75C63.8148 266.716 65.0046 266.683 66.2305 266.648C77.2902 266.525 77.2902 266.525 82 271C85.4358 274.528 85.4532 277.921 85.4336 282.617C85.4388 283.352 85.4441 284.087 85.4495 284.844C85.4559 286.395 85.4546 287.947 85.446 289.499C85.4376 291.861 85.4663 294.22 85.498 296.582C85.4997 298.094 85.4991 299.605 85.4961 301.117C85.5073 301.817 85.5186 302.518 85.5301 303.239C85.4593 308.276 84.1432 311.113 81 315C75.4355 319.24 68.7872 318.333 62.125 318.188C58.1238 318.126 54.1225 318.064 50 318C50 326.58 50 335.16 50 344C38.45 344 26.9 344 15 344C15 254.57 15 165.14 15 73Z" fill="#D6EAFB"/>
<path d="M168 318C177.9 318 187.8 318 198 318C200.92 328.333 203.277 338.719 205.498 349.224C207.522 358.795 209.599 368.353 211.716 377.904C212.069 379.498 212.422 381.091 212.773 382.685C213.268 384.932 213.767 387.179 214.266 389.426C214.411 390.088 214.557 390.751 214.707 391.433C215.654 395.676 216.772 399.832 218 404C218.004 402.709 218.008 401.418 218.012 400.088C218.034 395.272 218.089 390.456 218.153 385.641C218.176 383.561 218.19 381.482 218.196 379.402C218.205 376.403 218.246 373.405 218.293 370.406C218.289 369.485 218.285 368.564 218.281 367.615C218.44 360.481 220.462 355.486 225.584 350.439C230.979 345.807 234.683 345.598 241.66 345.652C247.828 346.294 251.329 349.2 255.438 353.625C258.744 358.651 258.219 363.695 258.25 369.5C258.271 370.463 258.291 371.426 258.312 372.418C258.32 373.804 258.32 373.804 258.328 375.219C258.337 376.064 258.347 376.909 258.356 377.779C257.922 380.486 257.15 381.353 255 383C253.062 383.398 253.062 383.398 251 383.375C249.979 383.387 249.979 383.387 248.938 383.398C247 383 247 383 245.289 381.98C243.267 378.874 243.464 375.535 243.375 371.938C243.407 366.812 243.407 366.812 242 362C240 361.957 238 361.959 236 362C234.119 363.881 234.872 367.114 234.871 369.615C234.869 370.306 234.867 370.997 234.865 371.709C234.861 374.004 234.864 376.299 234.867 378.594C234.867 380.182 234.866 381.77 234.864 383.358C234.863 386.69 234.865 390.023 234.87 393.355C234.875 397.636 234.872 401.917 234.866 406.198C234.862 409.478 234.864 412.759 234.866 416.039C234.867 417.618 234.866 419.197 234.864 420.776C234.861 422.979 234.865 425.182 234.871 427.385C234.871 428.641 234.872 429.897 234.873 431.191C234.679 433.904 234.679 433.904 236 435C238 435.041 240 435.043 242 435C243.335 432.329 243.161 430.21 243.211 427.223C243.239 426.07 243.268 424.917 243.297 423.729C243.349 421.289 243.393 418.848 243.43 416.408C243.461 415.254 243.492 414.099 243.523 412.91C243.543 411.849 243.563 410.789 243.583 409.696C244 407 244 407 245.409 405.156C247.396 403.713 248.561 403.597 251 403.625C252.021 403.613 252.021 403.613 253.062 403.602C255.674 404.139 256.404 404.859 258 407C258.57 411.189 258.472 415.38 258.446 419.604C258.438 421.664 258.466 423.72 258.498 425.779C258.494 433.305 258.214 438.671 254 445C249.188 449.688 244.596 451.284 237.938 451.25C236.915 451.255 235.893 451.26 234.84 451.266C231.998 451 230.469 450.332 228 449C228.151 449.62 228.303 450.241 228.459 450.88C229.143 453.69 229.821 456.501 230.5 459.312C230.738 460.289 230.977 461.265 231.223 462.271C231.448 463.209 231.674 464.147 231.906 465.113C232.116 465.977 232.325 466.841 232.541 467.732C233 470 233 470 233 473C272.93 473 312.86 473 354 473C354 473.33 354 473.66 354 474C335.068 474.117 316.135 474.205 297.203 474.259C288.412 474.285 279.621 474.32 270.831 474.377C263.168 474.427 255.506 474.459 247.843 474.47C243.786 474.477 239.73 474.492 235.673 474.529C231.853 474.563 228.033 474.573 224.213 474.566C222.813 474.567 221.412 474.577 220.012 474.596C208.115 474.751 208.115 474.751 204.189 471.607C202.023 469.028 201.069 467.54 200.363 464.289C200.142 463.325 199.921 462.361 199.694 461.368C199.465 460.257 199.236 459.145 199 458C198.709 456.682 198.417 455.364 198.123 454.046C197.293 450.298 196.492 446.544 195.698 442.788C193.229 431.116 190.708 419.464 187.875 407.875C185.571 398.448 183.41 388.998 181.324 379.521C179.972 373.378 178.605 367.238 177.207 361.105C173.941 346.772 170.797 332.434 168 318Z" fill="#065E9E"/>
<path d="M15 38C84.63 38 154.26 38 226 38C226 44.6 226 51.2 226 58C156.37 58 86.74 58 15 58C15 51.4 15 44.8 15 38Z" fill="#0593FC"/>
<path d="M354.238 346.684C360.021 349.774 364.025 354.802 366 361C366.267 364.395 366.267 364.395 366.291 368.325C366.297 369.045 366.304 369.764 366.311 370.505C366.33 372.875 366.334 375.244 366.336 377.613C366.342 379.268 366.349 380.924 366.356 382.579C366.368 386.046 366.372 389.514 366.371 392.981C366.37 397.41 366.398 401.837 366.432 406.266C366.454 409.684 366.458 413.103 366.457 416.522C366.46 418.154 366.469 419.786 366.484 421.417C366.636 439.077 366.636 439.077 360.588 445.499C355.09 450.457 349.893 451.467 342.719 451.312C337.313 450.691 333.779 448.091 330.187 444.062C326.479 438.871 325.747 435.041 325.709 428.675C325.703 427.955 325.696 427.236 325.689 426.495C325.67 424.125 325.666 421.756 325.664 419.387C325.658 417.731 325.651 416.076 325.644 414.421C325.632 410.954 325.628 407.486 325.629 404.019C325.63 399.59 325.602 395.163 325.568 390.734C325.546 387.316 325.542 383.897 325.543 380.478C325.54 378.846 325.531 377.214 325.516 375.583C325.366 358.153 325.366 358.153 331.852 350.941C332.437 350.486 333.022 350.031 333.625 349.562C334.215 349.089 334.806 348.616 335.414 348.129C340.489 344.517 348.444 344.914 354.238 346.684Z" fill="#050202"/>
<path d="M325.625 124.937C332.217 130.662 336.196 139.656 340.432 147.157C341.825 149.624 343.226 152.086 344.626 154.549C345.351 155.824 346.075 157.098 346.799 158.374C350.359 164.64 353.957 170.885 357.562 177.125C358.177 178.188 358.791 179.252 359.424 180.347C360.663 182.492 361.902 184.637 363.141 186.782C366.263 192.187 369.381 197.593 372.5 203C376.993 210.789 381.488 218.578 385.984 226.365C387.876 229.644 389.766 232.923 391.656 236.203C393.67 239.697 395.689 243.187 397.719 246.672C398.458 247.948 399.198 249.224 399.938 250.5C400.545 251.542 401.152 252.583 401.777 253.656C403 256 403 256 403 258C402.383 258.208 401.765 258.415 401.129 258.629C394.432 261.065 389.389 264.366 384 269C380.089 267.52 378.857 265.557 376.898 261.934C376.331 260.9 375.764 259.866 375.18 258.801C374.584 257.691 373.989 256.581 373.375 255.437C372.112 253.132 370.848 250.827 369.582 248.523C368.967 247.398 368.351 246.272 367.717 245.112C365.569 241.219 363.339 237.382 361.062 233.562C356.925 226.593 352.859 219.585 348.812 212.562C348.174 211.455 347.536 210.348 346.879 209.207C345.571 206.937 344.263 204.666 342.956 202.395C340.426 198.004 337.894 193.615 335.361 189.226C334.124 187.081 332.887 184.937 331.65 182.792C328.741 177.746 325.829 172.702 322.906 167.664C321.873 165.883 320.84 164.102 319.809 162.32C318.515 160.087 317.219 157.856 315.922 155.625C306.031 138.539 306.031 138.539 307 132C308.613 128.946 310.031 126.762 312.75 124.625C317.228 123.381 321.294 123.391 325.625 124.937Z" fill="#0593FC"/>
<path d="M408.434 346.855C413.496 349.66 416.975 353.591 419 359C419.757 364.915 419.729 370.791 419.699 376.746C419.705 378.484 419.712 380.223 419.721 381.961C419.733 385.595 419.726 389.228 419.707 392.862C419.684 397.5 419.711 402.136 419.752 406.774C419.778 410.361 419.775 413.948 419.764 417.535C419.762 419.244 419.77 420.953 419.787 422.662C419.922 438.71 419.922 438.71 414.64 445.41C409.893 450.014 405.423 451.233 398.875 451.5C392.957 451.277 389.733 449.863 385.605 445.539C380.954 440.258 379.7 436.547 379.709 429.604C379.703 428.866 379.696 428.127 379.689 427.366C379.67 424.926 379.666 422.487 379.664 420.047C379.658 418.345 379.651 416.644 379.644 414.942C379.632 411.375 379.628 407.807 379.629 404.24C379.63 399.682 379.602 395.126 379.568 390.568C379.546 387.053 379.542 383.537 379.543 380.021C379.54 378.342 379.531 376.663 379.516 374.984C379.366 357.1 379.366 357.1 385.902 349.906C392.826 345.122 400.384 344.026 408.434 346.855Z" fill="#030001"/>
<path d="M302.437 347.563C307.336 350.42 310.231 354.693 312 360C312.116 362.436 312.178 364.845 312.193 367.282C312.205 368.39 312.205 368.39 312.218 369.52C312.242 371.965 312.259 374.41 312.273 376.855C312.279 377.692 312.284 378.529 312.29 379.391C312.316 383.822 312.336 388.254 312.35 392.685C312.363 396.345 312.391 400.004 312.432 403.663C312.482 408.089 312.506 412.514 312.513 416.94C312.52 418.622 312.535 420.304 312.559 421.986C312.789 439.042 312.789 439.042 307 445C302.473 449.479 298.74 451.166 292.375 451.438C286.792 451.383 283.471 450.165 278.937 446.996C273.975 441.884 272.401 437.086 272.467 430.08C272.458 429.322 272.449 428.563 272.44 427.781C272.418 425.293 272.424 422.805 272.434 420.316C272.428 418.574 272.422 416.832 272.415 415.09C272.404 411.446 272.409 407.803 272.424 404.159C272.441 399.504 272.417 394.85 272.382 390.195C272.36 386.6 272.362 383.004 272.37 379.409C272.371 377.693 272.364 375.978 272.349 374.262C272.231 358.12 272.231 358.12 276.58 352.417C283.769 345.243 292.911 343.42 302.437 347.563Z" fill="#030001"/>
<path d="M204.031 206.65C205.46 206.633 206.889 206.606 208.317 206.568C223.687 206.158 223.687 206.158 230 212C233.497 215.584 234.302 218.507 234.547 223.375C234.441 231.31 230.86 236.855 226.75 243.437C226.059 244.592 225.37 245.747 224.684 246.904C216.499 260.5 216.499 260.5 209.875 264.187C207.222 265.679 205.156 266.844 203 269C200.478 269.227 200.478 269.227 197.336 269.195C196.214 269.189 195.093 269.182 193.938 269.176C192.762 269.159 191.586 269.142 190.375 269.125C188.6 269.111 188.6 269.111 186.789 269.098C183.859 269.074 180.93 269.041 178 269C177.898 262.008 177.828 255.015 177.78 248.022C177.76 245.645 177.733 243.268 177.698 240.89C177.65 237.467 177.627 234.045 177.609 230.621C177.589 229.564 177.568 228.506 177.547 227.416C177.545 221.038 178.167 217.169 182 212C189.072 206.516 195.469 206.722 204.031 206.65Z" fill="#4EC022"/>
<path d="M296 151C299.735 155.339 302.512 160.035 305.312 165C306.013 166.191 306.013 166.191 306.729 167.406C307.165 168.18 307.601 168.953 308.051 169.75C308.45 170.446 308.848 171.142 309.259 171.859C310.24 174.693 309.896 176.148 309 179C308.045 180.935 307.013 182.833 305.93 184.699C304.968 186.369 304.968 186.369 303.986 188.073C303.283 189.278 302.579 190.483 301.875 191.688C301.148 192.944 300.421 194.201 299.696 195.458C298.2 198.046 296.701 200.632 295.199 203.215C292.543 207.783 289.908 212.362 287.272 216.941C285.434 220.131 283.592 223.32 281.75 226.508C279.142 231.021 276.538 235.537 273.938 240.055C273.261 241.229 272.585 242.403 271.908 243.578C270.637 245.785 269.367 247.992 268.097 250.2C266.952 252.188 265.802 254.173 264.648 256.156C263.53 258.085 262.428 260.023 261.34 261.969C260.555 263.345 260.555 263.345 259.754 264.75C259.294 265.57 258.835 266.39 258.362 267.234C257.688 268.108 257.688 268.108 257 269C256.01 269 255.02 269 254 269C254 268.34 254 267.68 254 267C253.465 266.733 252.93 266.466 252.379 266.191C250.614 265.307 248.851 264.419 247.09 263.527C246.05 263.003 245.009 262.478 243.938 261.938C242.895 261.41 241.852 260.883 240.777 260.34C238.013 258.934 238.013 258.934 235 258C236.424 254.19 238.179 250.756 240.203 247.23C240.846 246.107 241.49 244.984 242.152 243.826C242.851 242.613 243.551 241.4 244.25 240.188C244.975 238.924 245.701 237.66 246.426 236.396C251.477 227.602 256.581 218.839 261.706 210.087C266.213 202.381 270.645 194.633 275.062 186.875C281.915 174.841 288.907 162.894 296 151Z" fill="#0593FC"/>
<path d="M245 346C250.218 347.968 253.94 351.349 257 356C258.486 360.457 258.225 364.831 258.25 369.5C258.271 370.463 258.291 371.426 258.313 372.418C258.32 373.804 258.32 373.804 258.328 375.219C258.342 376.486 258.342 376.486 258.356 377.779C257.922 380.486 257.15 381.353 255 383C253.063 383.398 253.063 383.398 251 383.375C249.979 383.387 249.979 383.387 248.938 383.398C247 383 247 383 245.289 381.98C243.267 378.874 243.464 375.535 243.375 371.938C243.407 366.812 243.407 366.812 242 362C240 361.957 238 361.959 236 362C234.119 363.881 234.872 367.114 234.871 369.615C234.869 370.306 234.867 370.997 234.865 371.709C234.861 374.004 234.864 376.299 234.867 378.594C234.867 380.182 234.866 381.77 234.864 383.358C234.863 386.69 234.865 390.023 234.87 393.355C234.875 397.636 234.872 401.917 234.866 406.198C234.862 409.478 234.864 412.759 234.866 416.039C234.867 417.618 234.866 419.197 234.864 420.776C234.861 422.979 234.865 425.182 234.871 427.385C234.871 428.641 234.872 429.897 234.873 431.191C234.679 433.904 234.679 433.904 236 435C238 435.041 240 435.043 242 435C243.335 432.329 243.161 430.21 243.211 427.223C243.253 425.493 243.253 425.493 243.297 423.729C243.349 421.289 243.393 418.848 243.43 416.408C243.461 415.254 243.492 414.099 243.523 412.91C243.543 411.849 243.563 410.789 243.583 409.696C244 407 244 407 245.409 405.156C247.396 403.713 248.561 403.597 251 403.625C252.021 403.613 252.021 403.613 253.063 403.602C255.674 404.139 256.404 404.859 258 407C258.57 411.189 258.472 415.38 258.446 419.604C258.438 421.664 258.466 423.72 258.498 425.779C258.494 433.305 258.214 438.671 254 445C249.346 449.535 244.64 451.297 238.188 451.5C232.748 451.406 229.688 450.3 225.621 446.723C220.397 441.171 218.881 436.432 218.807 428.81C218.799 428.081 218.791 427.352 218.782 426.601C218.758 424.189 218.741 421.776 218.727 419.363C218.721 418.538 218.716 417.712 218.71 416.861C218.684 412.488 218.664 408.115 218.65 403.742C218.637 400.131 218.609 396.52 218.568 392.909C218.518 388.542 218.494 384.176 218.487 379.808C218.48 378.148 218.465 376.489 218.441 374.829C218.211 357.965 218.211 357.965 224 352C230.574 345.637 235.994 345.063 245 346Z" fill="#020001"/>
<path d="M396 214C401.674 213.925 407.348 213.871 413.023 213.835C414.95 213.82 416.877 213.8 418.804 213.774C421.587 213.737 424.369 213.72 427.152 213.707C428.003 213.692 428.853 213.676 429.729 213.66C438.501 213.658 446.468 215.94 453 222C458.421 228.269 460.311 233.831 460.195 242.145C460.192 242.914 460.19 243.684 460.187 244.477C460.176 246.922 460.15 249.367 460.125 251.813C460.115 253.476 460.106 255.139 460.098 256.803C460.076 260.869 460.041 264.934 460 269C455.959 269.146 451.918 269.234 447.875 269.313C446.733 269.354 445.591 269.396 444.414 269.439C435.845 269.564 435.845 269.564 431.695 266.793C430.806 265.871 429.916 264.95 429 264C427.653 263.199 426.29 262.426 424.914 261.676C420.474 258.958 418.632 255.78 416.375 251.188C415.544 249.595 414.709 248.004 413.871 246.414C413.422 245.555 412.974 244.695 412.511 243.81C409.059 237.391 405.269 231.158 401.558 224.885C400.981 223.904 400.403 222.922 399.809 221.91C399.291 221.035 398.773 220.16 398.24 219.258C397 217 397 217 396 214Z" fill="#FBD101"/>
<path d="M50.4336 147.699C51.506 147.693 51.506 147.693 52.6001 147.686C54.1088 147.681 55.6175 147.68 57.1262 147.684C59.4264 147.687 61.7253 147.664 64.0254 147.639C65.4948 147.636 66.9642 147.636 68.4336 147.637C69.1171 147.628 69.8006 147.618 70.5047 147.609C76.2934 147.665 79.1942 149.253 83.2793 153.205C85.4539 156.737 85.5779 159.688 85.5312 163.715C85.5351 164.448 85.5389 165.182 85.5428 165.937C85.5456 167.483 85.5382 169.028 85.5215 170.574C85.5001 172.927 85.5213 175.278 85.5469 177.631C85.5442 179.138 85.5391 180.645 85.5312 182.152C85.5393 182.849 85.5474 183.546 85.5558 184.265C85.4606 189.279 84.2134 192.181 81 196C77.4672 198.738 73.2024 198.34 68.9102 198.371C68.1286 198.38 67.3471 198.389 66.5419 198.398C64.892 198.413 63.242 198.422 61.592 198.426C59.074 198.437 56.5585 198.487 54.041 198.537C52.4349 198.547 50.8288 198.554 49.2227 198.559C48.099 198.588 48.099 198.588 46.9527 198.618C42.9297 198.583 41.2057 198.168 38.0486 195.59C34.7392 191.406 34.8119 188.276 34.7617 183.105C34.7536 182.321 34.7456 181.537 34.7373 180.729C34.7234 179.067 34.7127 177.405 34.7048 175.743C34.6876 173.208 34.6438 170.674 34.5996 168.139C34.5895 166.523 34.581 164.908 34.5742 163.293C34.5567 162.538 34.5392 161.782 34.5212 161.004C34.536 157.385 34.8674 155.216 36.7766 152.107C41.1128 147.998 44.5894 147.691 50.4336 147.699Z" fill="#040404"/>
<path d="M50.3984 266.664C51.4673 266.654 51.4673 266.654 52.5578 266.644C54.0623 266.634 55.5668 266.629 57.0713 266.629C59.3608 266.625 61.6483 266.589 63.9375 266.551C65.4036 266.545 66.8698 266.541 68.3359 266.539C69.0143 266.525 69.6926 266.51 70.3914 266.496C76.3262 266.552 79.667 268.76 83.8479 272.774C85.5115 275.988 85.4483 279.08 85.4336 282.617C85.4388 283.352 85.4441 284.087 85.4495 284.844C85.4559 286.395 85.4546 287.947 85.446 289.499C85.4376 291.861 85.4663 294.22 85.498 296.582C85.4997 298.094 85.4991 299.605 85.4961 301.117C85.5129 302.167 85.5129 302.167 85.5301 303.239C85.4594 308.272 84.2291 311.169 81 315C77.4672 317.738 73.2024 317.34 68.9102 317.371C68.1286 317.38 67.3471 317.389 66.5419 317.398C64.892 317.413 63.242 317.422 61.592 317.426C59.074 317.437 56.5585 317.487 54.041 317.537C52.4349 317.547 50.8288 317.554 49.2227 317.559C48.099 317.588 48.099 317.588 46.9527 317.618C42.9297 317.583 41.2057 317.168 38.0486 314.59C34.7392 310.406 34.8119 307.276 34.7617 302.105C34.7536 301.321 34.7456 300.537 34.7373 299.729C34.7234 298.067 34.7127 296.405 34.7048 294.743C34.6876 292.208 34.6438 289.674 34.5996 287.139C34.5895 285.523 34.581 283.908 34.5742 282.293C34.5567 281.538 34.5392 280.782 34.5212 280.004C34.536 276.385 34.8674 274.216 36.7766 271.107C41.0948 267.015 44.577 266.683 50.3984 266.664Z" fill="#040504"/>
<path d="M57.1521 207.328C59.5604 207.375 61.9644 207.369 64.373 207.355C65.9167 207.367 67.4603 207.381 69.0039 207.398C70.0729 207.396 70.0729 207.396 71.1635 207.393C76.2039 207.535 79.1584 208.763 83 212C85.5917 215.416 85.3063 219.271 85.3008 223.398C85.3051 224.111 85.3094 224.824 85.3138 225.558C85.3195 227.062 85.32 228.567 85.3157 230.071C85.3125 232.361 85.336 234.648 85.3613 236.937C85.3636 238.404 85.3643 239.87 85.3633 241.336C85.3725 242.014 85.3817 242.693 85.3912 243.391C85.3469 247.992 84.6049 251.191 82 255C75.8235 259.207 68.9457 258.487 61.7778 258.446C59.5059 258.438 57.2365 258.466 54.9648 258.498C53.5078 258.5 52.0508 258.499 50.5938 258.496C48.6244 258.499 48.6244 258.499 46.6152 258.502C41.8183 257.836 38.6352 256.12 35.6526 252.253C34.6665 248.848 34.6133 245.464 34.5586 241.945C34.5448 241.166 34.5311 240.387 34.5169 239.584C34.4936 237.939 34.4763 236.293 34.4646 234.647C34.4377 232.139 34.3627 229.636 34.2871 227.129C34.0494 213.734 34.0494 213.734 37.4375 209.906C43.1176 206.474 50.722 207.192 57.1521 207.328Z" fill="#030404"/>
<path d="M269.214 283.873C270.577 283.869 270.577 283.869 271.967 283.864C273.474 283.868 273.474 283.868 275.012 283.871C276.59 283.868 276.59 283.868 278.199 283.865C281.695 283.861 285.191 283.864 288.688 283.867C291.105 283.867 293.523 283.866 295.94 283.864C301.014 283.863 306.089 283.865 311.163 283.87C317.684 283.875 324.205 283.872 330.725 283.866C335.72 283.862 340.714 283.864 345.708 283.866C348.113 283.867 350.519 283.866 352.924 283.864C356.279 283.861 359.633 283.865 362.988 283.871C363.993 283.869 364.998 283.867 366.033 283.864C366.942 283.867 367.85 283.87 368.786 283.873C369.581 283.873 370.375 283.874 371.193 283.874C373 284 373 284 374 285C374.495 293.91 374.495 293.91 375 303C338.37 303 301.74 303 264 303C264 283.875 264 283.875 269.214 283.873Z" fill="#46BDF9"/>
<path d="M335 235C335 246.22 335 257.44 335 269C314.87 269 294.74 269 274 269C275.65 265.7 277.3 262.4 279 259C279.733 256.939 280.431 254.864 281.074 252.773C290.618 227.666 312.247 232.792 335 235Z" fill="#0491F8"/>
<path d="M323 124C323.99 124.66 324.98 125.32 326 126C325.01 127.145 325.01 127.145 324 128.312C320.956 133.094 320.841 137.529 322 143C324.343 148.983 327.738 154.486 331 160C331.766 161.319 332.532 162.638 333.297 163.957C334.901 166.709 336.523 169.45 338.152 172.188C341.55 177.907 344.867 183.673 348.188 189.438C348.825 190.544 349.463 191.651 350.12 192.791C351.428 195.062 352.736 197.333 354.044 199.605C357.193 205.072 360.347 210.536 363.5 216C364.736 218.142 365.971 220.284 367.207 222.426C369.502 226.405 371.798 230.383 374.094 234.362C375.127 236.151 376.159 237.94 377.191 239.729C378.487 241.973 379.782 244.218 381.078 246.463C382.222 248.445 383.363 250.43 384.501 252.416C385.43 254.016 386.375 255.607 387.346 257.182C388.302 258.747 389.164 260.368 390 262C388.771 265.688 387.061 266.724 384 269C380.089 267.52 378.857 265.557 376.898 261.934C376.331 260.9 375.764 259.866 375.18 258.801C374.584 257.691 373.989 256.581 373.375 255.437C372.112 253.132 370.848 250.827 369.582 248.523C368.967 247.398 368.351 246.272 367.717 245.112C365.569 241.219 363.339 237.382 361.062 233.562C356.925 226.593 352.859 219.585 348.812 212.562C348.174 211.455 347.536 210.348 346.879 209.207C345.571 206.937 344.263 204.666 342.956 202.395C340.426 198.004 337.894 193.615 335.361 189.226C334.124 187.081 332.887 184.937 331.65 182.792C328.741 177.746 325.829 172.702 322.906 167.664C321.873 165.883 320.84 164.102 319.809 162.32C318.515 160.087 317.219 157.856 315.922 155.625C306.031 138.539 306.031 138.539 307 132C308.613 128.946 310.031 126.762 312.75 124.625C316.286 123.643 319.325 123.767 323 124Z" fill="#08568F"/>
<path d="M113.387 165.482C114.337 165.475 115.287 165.468 116.266 165.461C119.406 165.444 122.547 165.455 125.688 165.469C127.869 165.466 130.051 165.462 132.233 165.457C136.806 165.451 141.379 165.46 145.952 165.479C151.817 165.501 157.681 165.488 163.546 165.464C168.051 165.45 172.557 165.454 177.062 165.465C179.225 165.467 181.388 165.464 183.55 165.455C186.572 165.445 189.592 165.46 192.613 165.482C193.957 165.47 193.957 165.47 195.328 165.458C201.353 165.54 201.353 165.54 204.552 167.814C206.704 171.062 206.611 173.199 206 177C203.18 180.154 200.91 181.247 196.788 181.515C195.092 181.541 193.395 181.546 191.699 181.533C190.306 181.546 190.306 181.546 188.884 181.56C185.818 181.582 182.753 181.575 179.688 181.566C177.554 181.572 175.421 181.578 173.288 181.585C168.819 181.596 164.351 181.591 159.882 181.576C154.155 181.559 148.429 181.583 142.702 181.618C138.298 181.64 133.894 181.638 129.489 181.63C127.378 181.629 125.266 181.636 123.155 181.651C120.203 181.668 117.253 181.654 114.301 181.631C113.429 181.643 112.557 181.654 111.659 181.667C107.288 181.598 105.525 181.405 101.954 178.652C100 176 100 176 99.4375 172.938C100.941 165.088 106.711 165.422 113.387 165.482Z" fill="#030404"/>
<path d="M114.187 109.596C115.116 109.589 116.045 109.582 117.002 109.575C120.073 109.557 123.144 109.561 126.215 109.566C128.349 109.562 130.484 109.557 132.619 109.551C137.093 109.542 141.568 109.544 146.043 109.554C151.777 109.565 157.511 109.545 163.246 109.516C167.655 109.498 172.063 109.498 176.472 109.504C178.586 109.504 180.701 109.498 182.815 109.485C185.771 109.471 188.727 109.481 191.683 109.498C192.557 109.489 193.43 109.479 194.33 109.469C198.362 109.518 200.512 109.71 204.047 111.813C206 114 206 114 206.562 117.5C206 121 206 121 204.552 123.185C200.711 125.917 197.221 125.567 192.613 125.533C191.663 125.542 190.713 125.551 189.734 125.56C186.594 125.582 183.453 125.575 180.312 125.566C178.131 125.572 175.949 125.578 173.767 125.585C169.194 125.596 164.621 125.591 160.048 125.576C154.183 125.559 148.319 125.583 142.454 125.618C137.949 125.64 133.443 125.638 128.938 125.63C126.775 125.629 124.612 125.636 122.45 125.651C119.428 125.668 116.408 125.654 113.387 125.631C112.491 125.643 111.595 125.654 110.672 125.667C104.642 125.574 104.642 125.574 101.413 122.687C99.4723 118.997 99.8295 116.951 101 113C104.59 108.934 109.165 109.57 114.187 109.596Z" fill="#030404"/>
<path d="M418.488 273.945C423.761 277.103 427.603 281.309 430 287C430.781 293.623 430.355 299.216 427 305C422.912 310.022 417.985 313.306 411.578 314.422C404.981 314.791 400.262 312.917 395 309C390.203 304.203 388.902 299.265 388.562 292.625C388.671 286.916 390.29 283.288 394 279C400.863 272.639 409.448 270.511 418.488 273.945Z" fill="#786B77"/>
<path d="M237.437 273.922C242.374 276.801 246.429 280.858 249 286C249.677 293.373 250.181 300.256 245.566 306.383C240.718 311.388 235.837 314.117 228.812 314.375C222.149 314.305 218.17 312.089 213.469 307.508C208.832 302.305 207.399 297.549 207.562 290.695C208.604 284.28 212.406 278.762 217.562 274.875C223.551 271.657 231.128 271.536 237.437 273.922Z" fill="#796C78"/>
<path d="M296 151C298.902 154.519 301.072 157.855 303 162C302.56 162.403 302.119 162.805 301.665 163.22C299.825 165.187 298.659 167.124 297.355 169.48C296.851 170.385 296.346 171.289 295.827 172.22C295.015 173.689 295.015 173.689 294.188 175.188C293.013 177.29 291.837 179.391 290.66 181.492C290.054 182.573 289.449 183.655 288.825 184.769C285.976 189.813 283.054 194.814 280.125 199.812C275.195 208.231 270.303 216.669 265.438 225.125C260.542 233.616 255.638 242.103 250.688 250.562C250.142 251.503 249.597 252.444 249.035 253.413C248.532 254.268 248.03 255.123 247.512 256.004C246.854 257.13 246.854 257.13 246.182 258.28C245 260 245 260 243 261C241.055 260.441 241.055 260.441 238.875 259.562C237.788 259.131 237.788 259.131 236.68 258.691C236.125 258.463 235.571 258.235 235 258C236.424 254.19 238.179 250.756 240.203 247.23C240.846 246.107 241.49 244.984 242.152 243.826C242.851 242.613 243.551 241.4 244.25 240.188C244.975 238.924 245.701 237.66 246.426 236.396C251.477 227.602 256.581 218.839 261.706 210.087C266.213 202.381 270.645 194.633 275.062 186.875C281.915 174.841 288.907 162.894 296 151Z" fill="#065E9E"/>
<path d="M198.074 206.902C199.1 206.904 199.1 206.904 200.146 206.907C202.327 206.912 204.507 206.925 206.688 206.938C208.167 206.943 209.647 206.947 211.127 206.951C214.751 206.962 218.376 206.979 222 207C222 207.33 222 207.66 222 208C211.605 208.495 211.605 208.495 201 209C197.249 215.872 197.249 215.872 196.454 222.59C196.425 224.121 196.425 224.121 196.394 225.682C196.393 227.294 196.393 227.294 196.391 228.938C196.374 230.058 196.358 231.179 196.341 232.334C196.292 235.889 196.271 239.444 196.25 243C196.222 245.421 196.192 247.841 196.16 250.262C196.086 256.174 196.035 262.087 196 268C198.31 268 200.62 268 203 268C203 268.33 203 268.66 203 269C194.75 269 186.5 269 178 269C177.908 262.007 177.828 255.016 177.78 248.022C177.76 245.645 177.733 243.268 177.698 240.89C177.65 237.467 177.627 234.045 177.609 230.621C177.589 229.564 177.568 228.506 177.547 227.416C177.545 221.038 178.167 217.169 182 212C187.473 207.755 191.246 206.874 198.074 206.902Z" fill="#45A51F"/>
<path d="M141 284C158.49 284 175.98 284 194 284C194 290.27 194 296.54 194 303C176.51 303 159.02 303 141 303C141 296.73 141 290.46 141 284Z" fill="#46BDF9"/>
<path d="M444 284C461.49 284 478.98 284 497 284C497 290.27 497 296.54 497 303C479.51 303 462.02 303 444 303C444 296.73 444 290.46 444 284Z" fill="#46BDF9"/>
<path d="M80 96C82.375 97 82.375 97 84 99C84.5378 103.955 84.565 106.053 81.9805 110.387C81.0696 111.504 80.1373 112.603 79.1875 113.688C78.4529 114.571 78.4529 114.571 77.7034 115.471C76.6748 116.703 75.6374 117.927 74.5918 119.144C73.0023 120.997 71.4435 122.873 69.8906 124.758C61.5358 134.833 61.5358 134.833 57.1714 135.307C51.326 134.741 48.0668 129.965 44.125 125.938C43.2459 125.09 42.3667 124.242 41.4609 123.369C34.4363 116.306 34.4363 116.306 34.3008 112.035C35 109 35 109 37.0625 106.5C40 105 40 105 43.25 104.688C48.8521 106.648 52.1121 110.636 56 115C60.4248 111.8 63.4415 108.127 66.6875 103.812C73.0223 95.4418 73.0223 95.4418 80 96Z" fill="#040404"/>
<path d="M239 360.688C239.99 360.791 240.98 360.894 242 361C244.806 365.209 244.42 369.383 244.566 374.283C244.59 378.604 244.59 378.604 247 382C248.988 382.398 250.989 382.738 253 383C252.34 383.33 251.68 383.66 251 384C251 390.27 251 396.54 251 403C251.66 403.33 252.32 403.66 253 404C251.866 404.309 250.731 404.619 249.563 404.938C246.212 405.629 246.212 405.629 245 407C244.866 408.89 244.796 410.785 244.754 412.68C244.721 413.836 244.688 414.992 244.654 416.184C244.593 418.637 244.536 421.09 244.482 423.543C244.448 424.702 244.414 425.861 244.379 427.055C244.354 428.122 244.329 429.189 244.303 430.289C244 433 244 433 242 436C239 436.312 239 436.312 236 436C233.158 433.158 233.746 431.268 233.741 427.287C233.738 426.598 233.734 425.908 233.731 425.197C233.722 422.913 233.728 420.628 233.734 418.344C233.733 416.76 233.731 415.175 233.729 413.591C233.726 410.269 233.73 406.947 233.739 403.625C233.751 399.36 233.744 395.097 233.732 390.832C233.725 387.561 233.727 384.289 233.732 381.017C233.734 379.444 233.732 377.872 233.727 376.299C233.722 374.104 233.73 371.908 233.741 369.713C233.743 368.462 233.744 367.211 233.746 365.922C234.101 361.839 234.94 361.11 239 360.688Z" fill="#0593FC"/>
<path d="M15 38C84.63 38 154.26 38 226 38C226 38.33 226 38.66 226 39C167.92 39 109.84 39 50 39C50 45.27 50 51.54 50 58C38.45 58 26.9 58 15 58C15 51.4 15 44.8 15 38Z" fill="#017CEB"/>
<path d="M346 360.75C349 361 349 361 351 363C351.254 365.878 351.254 365.878 351.259 369.605C351.262 370.283 351.266 370.962 351.269 371.66C351.278 373.908 351.272 376.155 351.266 378.402C351.267 379.962 351.269 381.521 351.271 383.08C351.274 386.351 351.27 389.622 351.261 392.893C351.249 397.088 351.256 401.282 351.268 405.477C351.275 408.698 351.273 411.919 351.268 415.141C351.266 416.687 351.268 418.234 351.273 419.78C351.278 421.942 351.27 424.104 351.259 426.265C351.256 428.112 351.256 428.112 351.254 429.995C351 433 351 433 349 436C346 436.375 346 436.375 343 436C340.567 432.35 340.747 430.614 340.741 426.265C340.738 425.585 340.734 424.905 340.731 424.205C340.722 421.958 340.728 419.712 340.734 417.465C340.733 415.905 340.731 414.344 340.729 412.784C340.726 409.515 340.73 406.246 340.739 402.976C340.751 398.781 340.744 394.585 340.732 390.389C340.725 387.168 340.727 383.947 340.732 380.726C340.734 379.178 340.732 377.631 340.727 376.083C340.722 373.924 340.73 371.765 340.741 369.605C340.743 368.375 340.744 367.145 340.746 365.878C341.104 361.82 341.956 361.087 346 360.75Z" fill="#0593FC"/>
<path d="M235 273C234.59 273.58 234.18 274.16 233.758 274.758C228.48 282.41 225.885 288.6 227 298C228.451 303.461 229.885 308.05 234 312C234 312.66 234 313.32 234 314C227.286 314.555 222.291 314.535 216.719 310.492C211.992 306.389 208.614 302.134 207.676 295.816C207.165 288.546 209.409 283.578 214 278C220.018 271.927 226.895 272.444 235 273Z" fill="#665C66"/>
<path d="M291.938 360.812C295 361 295 361 297 363C297.254 365.922 297.254 365.922 297.259 369.713C297.262 370.402 297.266 371.092 297.269 371.803C297.278 374.087 297.272 376.372 297.266 378.656C297.267 380.24 297.269 381.825 297.271 383.409C297.274 386.731 297.27 390.053 297.261 393.375C297.249 397.64 297.256 401.903 297.268 406.168C297.275 409.439 297.273 412.711 297.268 415.983C297.266 417.556 297.268 419.128 297.273 420.701C297.278 422.896 297.27 425.092 297.259 427.287C297.256 429.163 297.256 429.163 297.254 431.078C297 434 297 434 295 436C292.5 436.25 292.5 436.25 290 436C288 434 288 434 287.753 431.033C287.754 429.761 287.756 428.49 287.757 427.179C287.754 426.128 287.754 426.128 287.751 425.055C287.748 422.733 287.758 420.412 287.77 418.09C287.771 416.481 287.771 414.872 287.771 413.263C287.772 409.889 287.781 406.516 287.794 403.142C287.811 398.809 287.815 394.475 287.814 390.141C287.815 386.819 287.82 383.497 287.827 380.174C287.83 378.576 287.832 376.977 287.833 375.379C287.835 373.149 287.844 370.92 287.855 368.691C287.859 367.42 287.862 366.15 287.866 364.84C288.049 360.968 288.057 361.06 291.938 360.812Z" fill="#0593FC"/>
<path d="M409.75 272.875C410.92 272.893 412.091 272.911 413.297 272.93C414.635 272.964 414.635 272.964 416 273C415.237 273.866 414.474 274.732 413.688 275.625C409.059 281.249 406.811 286.698 407 294C408.072 300.882 409.775 306.463 414 312C414 312.66 414 313.32 414 314C406.365 314.717 401.198 313.614 395 309C390.203 304.203 388.902 299.265 388.562 292.625C388.671 286.916 390.29 283.288 394 279C399.144 274.232 402.73 272.735 409.75 272.875Z" fill="#665C66"/>
<path d="M400.125 360.875C401.074 360.916 402.023 360.957 403 361C404.455 363.91 404.135 366.462 404.145 369.713C404.15 370.747 404.15 370.747 404.155 371.803C404.165 374.087 404.167 376.372 404.168 378.656C404.171 380.24 404.175 381.825 404.178 383.409C404.184 386.731 404.186 390.053 404.185 393.375C404.185 397.64 404.199 401.904 404.216 406.168C404.227 409.439 404.229 412.711 404.229 415.983C404.23 417.556 404.234 419.128 404.242 420.701C404.252 422.896 404.249 425.092 404.243 427.287C404.244 428.538 404.246 429.789 404.247 431.078C404 434 404 434 402 436C399.5 436.25 399.5 436.25 397 436C394.158 433.158 394.746 431.268 394.741 427.287C394.738 426.598 394.734 425.908 394.731 425.197C394.722 422.913 394.728 420.628 394.734 418.344C394.733 416.76 394.731 415.175 394.729 413.591C394.726 410.269 394.73 406.947 394.739 403.625C394.751 399.36 394.744 395.097 394.732 390.832C394.725 387.561 394.727 384.289 394.732 381.017C394.734 379.444 394.732 377.872 394.727 376.299C394.722 374.104 394.73 371.908 394.741 369.713C394.743 368.462 394.744 367.211 394.746 365.922C395.109 361.749 395.95 361.042 400.125 360.875Z" fill="#0593FC"/>
<path d="M50 282C56.6 282 63.2 282 70 282C70 288.6 70 295.2 70 302C63.4 302 56.8 302 50 302C50 295.4 50 288.8 50 282Z" fill="#4BB821"/>
<path d="M50 223C56.6 223 63.2 223 70 223C70 229.6 70 236.2 70 243C63.4 243 56.8 243 50 243C50 236.4 50 229.8 50 223Z" fill="#4CB921"/>
<path d="M50 163C56.6 163 63.2 163 70 163C70 169.6 70 176.2 70 183C63.4 183 56.8 183 50 183C50 176.4 50 169.8 50 163Z" fill="#4BB921"/>
<path d="M176 284C181.94 284 187.88 284 194 284C194 289.94 194 295.88 194 302C188.06 302 182.12 302 176 302C176 296.06 176 290.12 176 284Z" fill="#46BDF9"/>
<path d="M350 245C352.521 247.521 353.953 249.367 355.699 252.379C356.186 253.217 356.672 254.056 357.174 254.92C357.673 255.792 358.173 256.664 358.688 257.562C359.199 258.438 359.71 259.314 360.236 260.217C364 266.744 364 266.744 364 269C359.38 269 354.76 269 350 269C350 261.08 350 253.16 350 245Z" fill="#F6CD01"/>
</g>
<defs>
<clipPath id="clip0_111_82">
<rect width="512" height="512" fill="white"/>
</clipPath>
</defs>
</svg>
