<svg xmlns="http://www.w3.org/2000/svg" viewBox="0 0 49.99 49.15" id="purchase">
  <path fill="#38b000" d="M41.43 16.54v3.08a1.5 1.5 0 0 1-3 0v-3.08H22.86v3.08a1.5 1.5 0 0 1-3 0v-3.08h-7.33v32.6h37.46v-32.6Zm1 11.49L28.6 41.86a1.5 1.5 0 0 1-2.12 0l-7.33-7.33a1.51 1.51 0 0 1 0-2.12 1.49 1.49 0 0 1 2.12 0l6.27 6.26 12.78-12.72a1.503 1.503 0 1 1 2.12 2.13Z"></path>
  <path fill="#9ef01a" d="m10.18 49.15-5.09-3.32L0 49.15v-32.6h10.18v32.6z"></path>
  <path fill="#007200" d="M41.43 10.78v5.76h-3v-5.76a7.81 7.81 0 0 0-4.83-7.2 7.78 7.78 0 0 0-10.73 7.2v5.76h-3v-5.76A10.8 10.8 0 0 1 28.11.3a10.56 10.56 0 0 1 2.53-.3 10.8 10.8 0 0 1 10.79 10.78Z"></path>
  <path fill="#004b23" d="M25.58 0a10.47 10.47 0 0 1 2.52.3 10.77 10.77 0 0 0-5.48 3.28 7.81 7.81 0 0 0-4.82 7.2v5.76h-3v-5.76A10.8 10.8 0 0 1 25.58 0zm10.78 10.78v5.76h-3v-5.76a7.81 7.81 0 0 0-5.25-7.36 7.81 7.81 0 0 1 5.48.16 10.78 10.78 0 0 1 2.77 7.2z"></path>
</svg>
