<?xml version="1.0" encoding="UTF-8"?>
<svg version="1.1" xmlns="http://www.w3.org/2000/svg" width="512" height="512">
<path d="M0 0 C168.96 0 337.92 0 512 0 C512 168.96 512 337.92 512 512 C343.04 512 174.08 512 0 512 C0 343.04 0 174.08 0 0 Z " fill="#ED6C00" transform="translate(0,0)"/>
<path d="M0 0 C168.96 0 337.92 0 512 0 C512 50.16 512 100.32 512 152 C509.81588931 149.81588931 509.14246132 148.13271414 507.9375 145.3125 C503.67835772 136.65682375 495.89260763 132.10530521 487 129 C483.7797399 128.46452534 480.63123327 128.39545968 477.37109375 128.390625 C476.49598648 128.37408875 475.62087921 128.35755249 474.71925354 128.34051514 C471.95859494 128.29241751 469.19848551 128.27075022 466.4375 128.25 C464.55140522 128.22180822 462.66533561 128.19187636 460.77929688 128.16015625 C456.18624323 128.08666945 451.59348763 128.0368623 447 128 C446.566875 127.05769531 446.13375 126.11539063 445.6875 125.14453125 C443.22203427 120.55031849 439.87140311 118.62380104 435 117 C425.60370983 116.11355753 416.72850529 119.70708491 407.95850372 122.74035358 C390.56925984 128.47741397 373.96738045 128.98620892 355.89387345 128.83836615 C351.67186129 128.81180363 347.44994711 128.82665036 343.22789001 128.83618164 C335.94138962 128.84734161 328.65528992 128.83378342 321.36885071 128.80304527 C310.82463072 128.75895586 300.28072838 128.75797268 289.73643631 128.76765511 C272.60889809 128.78260907 255.48151126 128.76954418 238.35400391 128.7355957 C236.82213642 128.73257 236.82213642 128.73257 235.25932211 128.72948316 C233.19222286 128.72539075 231.12512362 128.72129686 229.05802438 128.71720149 C228.03302489 128.71517466 227.00802541 128.71314782 225.95196533 128.71105957 C224.92597694 128.7090261 223.89998855 128.70699263 222.8429096 128.70489753 C211.41529943 128.68269859 199.98768329 128.66785251 188.56005859 128.65551758 C187.53522784 128.6544039 186.51039709 128.65329021 185.45451087 128.65214279 C168.36449312 128.6341873 151.27449827 128.63225595 134.18447351 128.63930541 C123.66398454 128.64267374 113.14373122 128.63015951 102.62329292 128.59690402 C95.42643781 128.57486325 88.22965319 128.56646026 81.03276491 128.56875666 C76.88361579 128.56951276 72.73474906 128.56357969 68.58566093 128.54001045 C64.78528464 128.51849308 60.98535065 128.51546199 57.18493468 128.52684758 C55.16566981 128.52807447 53.14642255 128.50950355 51.12725019 128.49013633 C43.83922059 128.53304171 38.33104511 129.29847333 32 133 C31.02019975 133.56744329 31.02019975 133.56744329 30.02060556 134.14635009 C23.14304629 138.33846233 19.11043174 145.39082491 17 153 C16.70782904 155.88997706 16.68907129 158.76432752 16.68115234 161.66748047 C16.67110672 162.51691727 16.6610611 163.36635406 16.65071106 164.24153137 C16.61995971 167.03341022 16.60286637 169.82519352 16.5859375 172.6171875 C16.56721938 174.5591819 16.54764548 176.50116822 16.5272522 178.44314575 C16.47599312 183.5426761 16.43633406 188.6422328 16.39910889 193.74188232 C16.35903023 198.95038335 16.3079555 204.15877536 16.2578125 209.3671875 C16.16112689 219.57804834 16.07669853 229.78897083 16 240 C16.61069651 239.99631283 17.22139301 239.99262566 17.85059547 239.98882675 C32.76832335 239.90016343 47.68602551 239.83413942 62.60395241 239.79275131 C69.81842182 239.77219996 77.03271444 239.74422321 84.24707031 239.69824219 C90.54130603 239.658145 96.83541359 239.63251334 103.1297735 239.62364602 C106.45711276 239.61846943 109.78379761 239.6043042 113.11107254 239.57707977 C135.6898144 239.39978584 154.29496469 241.55956223 172 257 C172.60328125 257.49757813 173.2065625 257.99515625 173.828125 258.5078125 C183.52120143 267.19665128 191.34329138 283.07756059 192.12475586 296.07495117 C192.82467689 317.2099498 188.34687196 332.97185186 174.1640625 349.0859375 C164.35180933 359.53899088 150.02521985 367.41295658 135.47944164 368.12304783 C134.13685016 368.12166514 134.13685016 368.12166514 132.76713562 368.12025452 C131.7337355 368.12162918 130.70033539 368.12300385 129.63562012 368.12442017 C128.5128064 368.12082489 127.38999268 368.11722961 126.2331543 368.11352539 C124.44715569 368.11374443 124.44715569 368.11374443 122.62507629 368.1139679 C119.3692606 368.1133915 116.11348814 368.10838364 112.85768104 368.10139394 C109.45173821 368.09513351 106.04579449 368.09455447 102.6398468 368.09336853 C96.19429911 368.09026314 89.74876841 368.08206044 83.3032282 368.07201904 C75.96347191 368.06083329 68.62371481 368.05534125 61.28395212 368.05032361 C46.18929194 368.03987716 31.09464767 368.02229307 16 368 C16.03814373 379.04050101 16.09763157 390.0806652 16.18390274 401.12090111 C16.22330721 406.24809368 16.25553013 411.37511631 16.27099609 416.50244141 C16.28620902 421.45637801 16.3207366 426.40984719 16.36830902 431.36357498 C16.38307512 433.2476252 16.39103826 435.13174217 16.39188385 437.01585007 C16.40394612 450.42335698 17.1433616 461.849471 27 472 C33.62790598 477.2095341 40.25669678 479.30692293 48.67849445 479.25726891 C49.43573581 479.26077498 50.19297718 479.26428105 50.97316524 479.26789337 C53.51313337 479.27720471 56.05287208 479.27228476 58.59284973 479.26742554 C60.43127669 479.27116193 62.26970206 479.2757634 64.10812491 479.28115618 C69.1623134 479.29340291 74.21643578 479.29312374 79.27063572 479.29076743 C84.72066148 479.29035969 90.17066591 479.30139431 95.62068176 479.31088257 C106.29904151 479.32750255 116.97737919 479.33299256 127.65575079 479.33410732 C136.33450099 479.33505729 145.01324391 479.33916503 153.69199181 479.34550858 C178.29149302 479.36312345 202.89097778 479.37235917 227.49048523 479.37084763 C228.1534615 479.37080774 228.81643778 479.37076785 229.49950425 479.37072675 C230.84020376 479.37064587 232.18090326 479.37056228 233.52160277 479.37047596 C254.38072204 479.36925045 275.23977629 479.38426381 296.09887695 479.41162109 C319.5354316 479.44234613 342.9719506 479.45952801 366.40852755 479.45769465 C378.8171949 479.45703029 391.22578891 479.46254287 403.63443947 479.48405075 C414.19875677 479.50224434 424.7629675 479.50662481 435.32729367 479.4930319 C440.71775925 479.48649319 446.10802026 479.4864178 451.49846649 479.5037384 C456.43390144 479.51943394 461.36896901 479.51664139 466.3043948 479.49917014 C468.0890222 479.4960925 469.87367678 479.49976131 471.65827212 479.51089029 C484.36323527 479.6760736 484.36323527 479.6760736 496 475 C497.5778125 474.13375 497.5778125 474.13375 499.1875 473.25 C505.36962148 468.30430282 508.60678675 462.44555234 511 455 C511.33 455 511.66 455 512 455 C512 473.81 512 492.62 512 512 C343.04 512 174.08 512 0 512 C0 343.04 0 174.08 0 0 Z " fill="#FECA7E" transform="translate(0,0)"/>
<path d="M0 0 C2.5264892 1.73276914 4.16584908 3.61130163 5.765625 6.2109375 C5.765625 7.2009375 5.765625 8.1909375 5.765625 9.2109375 C6.91450195 9.1795166 8.06337891 9.1480957 9.24707031 9.11572266 C13.56318436 9.00604315 17.87917887 8.93785433 22.19628906 8.88134766 C24.05457359 8.85141685 25.91271983 8.81065603 27.77050781 8.75830078 C39.71058922 8.43055904 50.29619457 8.18789542 59.57128906 16.90869141 C59.96541992 17.33843262 60.35955078 17.76817383 60.765625 18.2109375 C60.25813721 18.5826709 59.75064941 18.9544043 59.2277832 19.33740234 C50.1930184 25.96065136 41.18113253 32.60106033 32.32421875 39.4609375 C20.92041397 48.29227943 9.41678578 56.99703866 -2.13598633 65.63232422 C-7.69398994 69.79226809 -13.21585316 73.99880892 -18.734375 78.2109375 C-25.51154539 83.38375622 -32.30775688 88.52861923 -39.13671875 93.6328125 C-44.69440548 97.79269069 -50.21608572 101.99898643 -55.734375 106.2109375 C-62.51154539 111.38375622 -69.30775688 116.52861923 -76.13671875 121.6328125 C-81.69440592 125.79269102 -87.21605424 129.99902706 -92.734375 134.2109375 C-102.49618404 141.66080875 -112.30886687 149.04001521 -122.1484375 156.38671875 C-129.55189733 161.92367251 -136.90298818 167.52770077 -144.25268555 173.13574219 C-150.18898553 177.66195332 -156.14759577 182.15639689 -162.12695312 186.62548828 C-168.69572369 191.54212356 -175.2156343 196.52243396 -181.73828125 201.5 C-187.12871452 205.61188248 -192.5375682 209.69603756 -197.96875 213.75390625 C-202.49533962 217.14884846 -206.98628147 220.59090246 -211.484375 224.0234375 C-221.33004604 231.53509969 -231.2254116 238.97770343 -241.1484375 246.38671875 C-248.55189733 251.92367251 -255.90298818 257.52770077 -263.25268555 263.13574219 C-269.18898553 267.66195332 -275.14759577 272.15639689 -281.12695312 276.62548828 C-287.69572369 281.54212356 -294.2156343 286.52243396 -300.73828125 291.5 C-306.12871452 295.61188248 -311.5375682 299.69603756 -316.96875 303.75390625 C-321.49533962 307.14884846 -325.98628147 310.59090246 -330.484375 314.0234375 C-338.7878814 320.35851967 -347.12102762 326.65175866 -355.48681641 332.90429688 C-358.15497957 334.89926883 -360.81957481 336.89897552 -363.484375 338.8984375 C-364.42796875 339.60097656 -365.3715625 340.30351562 -366.34375 341.02734375 C-368.41952297 342.59539387 -370.46548141 344.18121317 -372.5 345.80078125 C-373.04108398 346.22464111 -373.58216797 346.64850098 -374.13964844 347.08520508 C-375.64662796 348.26711814 -377.14394561 349.46132048 -378.640625 350.65625 C-381.234375 352.2109375 -381.234375 352.2109375 -383.3828125 352.25 C-385.985489 350.78942627 -386.89865891 349.04586964 -388.359375 346.4609375 C-388.85695313 345.59984375 -389.35453125 344.73875 -389.8671875 343.8515625 C-392.7421121 338.29885099 -393.5179134 333.90657785 -393.46142578 327.65698242 C-393.46171783 326.80769165 -393.46200989 325.95840088 -393.46231079 325.08337402 C-393.46092134 322.28594625 -393.44537823 319.4887873 -393.4296875 316.69140625 C-393.425956 314.74799241 -393.42310968 312.80457668 -393.42111206 310.86116028 C-393.41348637 305.75329366 -393.39384697 300.64554129 -393.3717041 295.53771973 C-393.35122278 290.32268825 -393.34210545 285.10763826 -393.33203125 279.89257812 C-393.31060012 269.66531446 -393.27647697 259.43813549 -393.234375 249.2109375 C-392.13349548 249.20507126 -391.03261597 249.19920502 -389.89837646 249.19316101 C-379.48294362 249.13574876 -369.06771587 249.06289159 -358.65249252 248.97522259 C-353.29894286 248.93064767 -347.94546704 248.8913636 -342.59179688 248.86450195 C-337.41747059 248.83833997 -332.24343047 248.79784768 -327.06928253 248.74775124 C-325.1031477 248.73116929 -323.13696347 248.71960137 -321.17076874 248.71332359 C-300.4549564 248.64053849 -282.98956818 245.13327424 -267.859375 230.0390625 C-254.37317457 215.50928704 -249.40602718 199.43341318 -249.9609375 179.91015625 C-250.64901226 165.47480262 -257.80574739 150.62607396 -267.88671875 140.3203125 C-287.01982159 123.12917184 -307.47271777 121.6094076 -332.0703125 121.6015625 C-334.76318098 121.58874225 -337.45600008 121.57002361 -340.14883423 121.55145264 C-346.47719933 121.5111456 -352.80546206 121.49061207 -359.13393557 121.47747874 C-366.34824053 121.4615221 -373.56237339 121.42307093 -380.77657771 121.38288546 C-395.59577394 121.30083358 -410.41499244 121.24652558 -425.234375 121.2109375 C-425.32725327 110.02305435 -425.39823043 98.83526366 -425.44162369 87.64707279 C-425.46245541 82.45134376 -425.49069224 77.25587945 -425.53613281 72.06030273 C-425.5797482 67.04173129 -425.60354529 62.02341371 -425.61388397 57.00466728 C-425.62124723 55.09458867 -425.6356258 53.18452319 -425.65729523 51.2745533 C-425.68653816 48.58906681 -425.69032235 45.90461545 -425.68847656 43.21899414 C-425.70285767 42.43783737 -425.71723877 41.6566806 -425.73205566 40.85185242 C-425.66529744 31.81418275 -421.41681937 23.69363303 -415.234375 17.2109375 C-408.77921325 11.98422664 -402.57549858 8.95646911 -394.14669323 8.96877766 C-392.94142615 8.96562906 -391.73615906 8.96248046 -390.49436873 8.95923644 C-389.17873972 8.96594602 -387.8631107 8.97265559 -386.50761414 8.97956848 C-385.08894713 8.97957822 -383.67027989 8.97868991 -382.25161391 8.9769823 C-379.16981557 8.97522793 -376.08811452 8.97985673 -373.00633049 8.9893589 C-367.99069233 9.00482303 -362.97510086 9.0065947 -357.95944214 9.00680542 C-350.67332819 9.00840597 -343.38724518 9.01650354 -336.10114098 9.0282383 C-324.56308325 9.04613935 -313.0250799 9.04220584 -301.48701477 9.03459167 C-297.53472047 9.03223634 -293.5824261 9.02999657 -289.63013172 9.02777386 C-288.64229597 9.02720932 -287.65446022 9.02664479 -286.63669005 9.02606315 C-275.3913386 9.0198695 -264.14598783 9.01752158 -252.90063477 9.01733398 C-251.35894593 9.01729883 -251.35894593 9.01729883 -249.78611187 9.01726296 C-233.17468194 9.01751274 -216.56331489 9.03658132 -199.95190527 9.06093065 C-182.86689028 9.08533484 -165.78201414 9.0827391 -148.6970008 9.05724925 C-138.17851113 9.04252454 -127.66049069 9.04929032 -117.14204774 9.08455034 C-109.91257101 9.10689656 -102.68338573 9.10331413 -95.4539127 9.08025096 C-91.29665843 9.0677726 -87.14021464 9.06603706 -82.98303032 9.09583473 C-64.70410225 9.21876709 -48.15594742 8.09522901 -30.67347968 2.05103147 C-9.46450273 -5.25391687 -9.46450273 -5.25391687 0 0 Z " fill="#F27B00" transform="translate(441.234375,118.7890625)"/>
<path d="M0 0 C1.99128775 0.00589469 3.98258174 0.00996704 5.97387695 0.01220703 C13.28736779 0.03302155 20.6007252 0.08886619 27.9140625 0.140625 C52.4784375 0.264375 52.4784375 0.264375 77.5390625 0.390625 C77.5390625 50.550625 77.5390625 100.710625 77.5390625 152.390625 C75.35495181 150.20651431 74.68152382 148.52333914 73.4765625 145.703125 C69.21742022 137.04744875 61.43167013 132.49593021 52.5390625 129.390625 C49.3188024 128.85515034 46.17029577 128.78608468 42.91015625 128.78125 C42.03504898 128.76471375 41.15994171 128.74817749 40.25831604 128.73114014 C37.49765744 128.68304251 34.73754801 128.66137522 31.9765625 128.640625 C30.09046772 128.61243322 28.20439811 128.58250136 26.31835938 128.55078125 C21.72530573 128.47729445 17.13255013 128.4274873 12.5390625 128.390625 C12.1059375 127.44832031 11.6728125 126.50601563 11.2265625 125.53515625 C8.76109677 120.94094349 5.41046561 119.01442604 0.5390625 117.390625 C-8.88701491 116.50137241 -17.77590962 120.1356409 -26.58777523 123.13197422 C-43.20383551 128.5416366 -59.03114061 129.37530233 -76.33179176 129.20308435 C-80.22844767 129.17229593 -84.1250459 129.1831233 -88.02178955 129.18840027 C-94.74195725 129.1920362 -101.46164205 129.17044124 -108.18168831 129.1307354 C-117.89715399 129.0733689 -127.61239086 129.05556711 -137.32800751 129.04681946 C-153.09827928 129.03157296 -168.86829477 128.9851913 -184.63842773 128.91870117 C-199.93984717 128.85425511 -215.2411965 128.80480114 -230.54272461 128.77514648 C-231.48900811 128.77330742 -232.43529161 128.77146836 -233.41025037 128.76957356 C-238.15840281 128.76043701 -242.90655573 128.75159136 -247.65470898 128.74289024 C-286.92363105 128.67055382 -326.19226722 128.54746584 -365.4609375 128.390625 C-365.93782955 127.13994385 -366.41268733 125.88848693 -366.88671875 124.63671875 C-367.15137939 123.9398999 -367.41604004 123.24308105 -367.6887207 122.52514648 C-369.93663189 116.31158736 -371.44693051 110.02142797 -370.4609375 103.390625 C-367.78130201 98.03135403 -363.7801521 93.63782833 -358.10888672 91.50683594 C-355.32341726 90.7225023 -352.53093477 90.03987315 -349.7109375 89.390625 C-347.63381063 88.88144668 -345.55699015 88.37101692 -343.48046875 87.859375 C-342.45646973 87.611875 -341.4324707 87.364375 -340.37744141 87.109375 C-336.36011417 86.11933554 -332.37902518 85.01794342 -328.3984375 83.890625 C-326.93892157 83.48134449 -325.47928446 83.07249589 -324.01953125 82.6640625 C-322.91327393 82.3542041 -322.91327393 82.3542041 -321.78466797 82.03808594 C-317.51438333 80.84825668 -313.23776338 79.68168507 -308.9609375 78.515625 C-308.05110107 78.26756104 -307.14126465 78.01949707 -306.20385742 77.76391602 C-297.86455937 75.49415467 -289.51869396 73.24881062 -281.16992188 71.01416016 C-276.09260096 69.65177292 -271.02073155 68.27211557 -265.95734596 66.85872555 C-252.79705231 63.1860803 -239.61250491 59.60199805 -226.43019533 56.00938678 C-222.91670589 55.05174328 -219.40335324 54.09359815 -215.88998413 53.13551331 C-209.21406029 51.31508776 -202.53801954 49.49509139 -195.86193407 47.6752587 C-188.43049112 45.64950321 -180.99917227 43.62329271 -173.56786776 41.59702945 C-161.41410025 38.28312692 -149.26029721 34.96935473 -137.10644531 31.65576172 C-136.43214116 31.47192012 -135.757837 31.28807851 -135.06309938 31.09866595 C-127.11895109 28.93280633 -119.17465167 26.76750246 -111.23010445 24.6031065 C-107.19155448 23.50281271 -103.15308847 22.40221097 -99.11463547 21.30156136 C-97.32604706 20.81418943 -95.53741679 20.32697109 -93.74873734 19.8399334 C-83.60037882 17.07664096 -73.45962267 14.28774512 -63.3276062 11.46508789 C-57.4370836 9.82525337 -51.53524268 8.22719845 -45.6328125 6.63085938 C-44.7665625 6.39560547 -43.9003125 6.16035156 -43.0078125 5.91796875 C-42.15972015 5.69396896 -41.31162781 5.46996918 -40.43783569 5.23918152 C-38.49873537 4.68644638 -36.57654997 4.06911384 -34.68154907 3.38020325 C-23.22618059 -0.53785452 -11.97456802 -0.11924595 0 0 Z " fill="#788F9B" transform="translate(434.4609375,-0.390625)"/>
<path d="M0 0 C135.63 0 271.26 0 411 0 C408.14759927 1.42620036 405.94651082 2.40956411 402.96484375 3.26171875 C401.77217896 3.60384399 401.77217896 3.60384399 400.55541992 3.95288086 C399.69150635 4.19530518 398.82759277 4.43772949 397.9375 4.6875 C397.02137939 4.94732666 396.10525879 5.20715332 395.16137695 5.47485352 C386.69197426 7.8534071 378.1790465 10.06075602 369.64624023 12.19995117 C363.50726066 13.7592013 357.42249855 15.44768545 351.34848309 17.24163055 C336.55384759 21.61048216 321.68509389 25.69750027 306.80105758 29.74868393 C303.25000402 30.71562678 299.69955209 31.68477462 296.14900208 32.65356445 C290.1917804 34.27866844 284.23409861 35.90207633 278.27612305 37.52441406 C271.4693116 39.37790897 264.66324142 41.23410563 257.85756606 43.09176731 C251.21053772 44.90605533 244.56297601 46.71838198 237.91518593 48.52987671 C235.13229216 49.28823639 232.34957166 50.04722664 229.56700706 50.80679321 C214.78031893 54.84243898 199.98455121 58.83078165 185.13135815 62.6158905 C177.89504929 64.46929932 170.7224674 66.4964168 163.5625 68.625 C155.44027565 71.03333395 147.30208704 73.22792658 139.07104492 75.23144531 C133.27778651 76.65143564 127.56837445 78.26220385 121.8581543 79.98266602 C115.2298919 81.9653877 108.55659864 83.76885563 101.875 85.5625 C100.19289429 86.01749878 100.19289429 86.01749878 98.47680664 86.48168945 C93.74581386 87.75594066 89.01904616 89.0169002 84.24609375 90.125 C77.42222661 91.73037672 71.44697753 93.20589247 67 99 C62.94953163 105.91206207 65.1439978 113.28286474 67 120.5625 C67.64996247 123.04677655 68.31943349 125.52383168 69 128 C68.19892822 128.0093457 67.39785645 128.01869141 66.57250977 128.02832031 C62.90190881 128.08238939 59.23253238 128.1659674 55.5625 128.25 C54.30244141 128.26417969 53.04238281 128.27835938 51.74414062 128.29296875 C44.29485125 128.48746717 38.47644553 129.21351592 32 133 C31.34741211 133.37793701 30.69482422 133.75587402 30.02246094 134.14526367 C23.1439442 138.33778051 19.11074926 145.3896801 17 153 C16.70782904 155.88997706 16.68907129 158.76432752 16.68115234 161.66748047 C16.67110672 162.51691727 16.6610611 163.36635406 16.65071106 164.24153137 C16.61995971 167.03341022 16.60286637 169.82519352 16.5859375 172.6171875 C16.56721938 174.5591819 16.54764548 176.50116822 16.5272522 178.44314575 C16.47599312 183.5426761 16.43633406 188.6422328 16.39910889 193.74188232 C16.35903023 198.95038335 16.3079555 204.15877536 16.2578125 209.3671875 C16.16112689 219.57804834 16.07669853 229.78897083 16 240 C15.38439209 240.18103271 14.76878418 240.36206543 14.13452148 240.54858398 C13.32571533 240.79938721 12.51690918 241.05019043 11.68359375 241.30859375 C10.88236084 241.55150146 10.08112793 241.79440918 9.25561523 242.04467773 C5.65954057 243.5677257 4.22052506 245.83743401 2 249 C1.01 249.99 1.01 249.99 0 251 C0 168.17 0 85.34 0 0 Z " fill="#FEFEFE" transform="translate(0,0)"/>
<path d="M0 0 C0.99 1.485 0.99 1.485 2 3 C4.91091794 7.23406246 6.72390322 9.17939501 11.68359375 10.6875 C12.4923999 10.93886719 13.30120605 11.19023437 14.13452148 11.44921875 C14.75012939 11.63097656 15.3657373 11.81273437 16 12 C16.00364563 13.05520844 16.00729126 14.11041687 16.01104736 15.19760132 C16.04808848 25.17221441 16.10596044 35.14652138 16.18390274 45.12090111 C16.22330721 50.24809368 16.25553013 55.37511631 16.27099609 60.50244141 C16.28620902 65.45637801 16.3207366 70.40984719 16.36830902 75.36357498 C16.38307512 77.2476252 16.39103826 79.13174217 16.39188385 81.01585007 C16.40394612 94.42335698 17.1433616 105.849471 27 116 C33.62790598 121.2095341 40.25669678 123.30692293 48.67849445 123.25726891 C49.43573581 123.26077498 50.19297718 123.26428105 50.97316524 123.26789337 C53.51313337 123.27720471 56.05287208 123.27228476 58.59284973 123.26742554 C60.43127669 123.27116193 62.26970206 123.2757634 64.10812491 123.28115618 C69.1623134 123.29340291 74.21643578 123.29312374 79.27063572 123.29076743 C84.72066148 123.29035969 90.17066591 123.30139431 95.62068176 123.31088257 C106.29904151 123.32750255 116.97737919 123.33299256 127.65575079 123.33410732 C136.33450099 123.33505729 145.01324391 123.33916503 153.69199181 123.34550858 C178.29149302 123.36312345 202.89097778 123.37235917 227.49048523 123.37084763 C228.1534615 123.37080774 228.81643778 123.37076785 229.49950425 123.37072675 C230.84020376 123.37064587 232.18090326 123.37056228 233.52160277 123.37047596 C254.38072204 123.36925045 275.23977629 123.38426381 296.09887695 123.41162109 C319.5354316 123.44234613 342.9719506 123.45952801 366.40852755 123.45769465 C378.8171949 123.45703029 391.22578891 123.46254287 403.63443947 123.48405075 C414.19875677 123.50224434 424.7629675 123.50662481 435.32729367 123.4930319 C440.71775925 123.48649319 446.10802026 123.4864178 451.49846649 123.5037384 C456.43390144 123.51943394 461.36896901 123.51664139 466.3043948 123.49917014 C468.0890222 123.4960925 469.87367678 123.49976131 471.65827212 123.51089029 C484.36323527 123.6760736 484.36323527 123.6760736 496 119 C497.051875 118.4225 498.10375 117.845 499.1875 117.25 C505.36962148 112.30430282 508.60678675 106.44555234 511 99 C511.33 99 511.66 99 512 99 C512 117.81 512 136.62 512 156 C343.04 156 174.08 156 0 156 C0 104.52 0 53.04 0 0 Z " fill="#FEFEFE" transform="translate(0,356)"/>
<path d="M0 0 C31.68 0 63.36 0 96 0 C96.99 4.95 96.99 4.95 98 10 C100.88338742 18.34841241 105.66918403 23.87567829 113.24609375 28.31640625 C121.70837064 32.30437582 131.57416641 32.56518086 140.375 29.4375 C148.24106882 25.73050205 153.17092116 20.68075108 156.9921875 12.91796875 C158.43551707 8.73902616 159.13293684 4.33531578 160 0 C170.56 0 181.12 0 192 0 C192 19.20773737 185.27774411 33.24646444 172.25 47.125 C161.78426938 57.20979406 147.29338884 64.07930648 132.61769104 64.14717102 C131.55089111 64.15432632 130.48409119 64.16148163 129.38496399 64.16885376 C128.22482285 64.17154266 127.0646817 64.17423157 125.86938477 64.17700195 C124.63958893 64.18357315 123.40979309 64.19014435 122.14273071 64.19691467 C118.07562005 64.21661664 114.0085487 64.22830571 109.94140625 64.23828125 C108.53831399 64.24233113 107.13522192 64.24644812 105.73213005 64.25063133 C99.14230066 64.26966083 92.55248236 64.28389952 85.96263081 64.2922433 C78.36481172 64.30202367 70.76728333 64.3283731 63.16956669 64.36874419 C57.28916351 64.39891517 51.40884367 64.41371288 45.5283646 64.41702431 C42.01925693 64.41937262 38.51046065 64.42830479 35.00143623 64.45348549 C31.08753277 64.48112124 27.17401204 64.47693204 23.26000977 64.4699707 C22.10189285 64.48278076 20.94377594 64.49559082 19.75056458 64.50878906 C13.51439148 64.46830473 9.71749748 64.22656757 5 60 C1.09202604 55.66954237 -0.12751649 52.66431093 -0.11352539 46.88598633 C-0.11340454 45.83060669 -0.11328369 44.77522705 -0.11315918 43.68786621 C-0.10804321 42.58044067 -0.10292725 41.47301514 -0.09765625 40.33203125 C-0.09664917 39.31282593 -0.09564209 38.29362061 -0.09460449 37.24353027 C-0.08936913 33.43317542 -0.07540788 29.62283659 -0.0625 25.8125 C-0.041875 17.294375 -0.02125 8.77625 0 0 Z " fill="#FEB44C" transform="translate(0,304)"/>
<path d="M0 0 C29.37 0 58.74 0 89 0 C89 50.16 89 100.32 89 152 C86.81588931 149.81588931 86.14246132 148.13271414 84.9375 145.3125 C81.03676142 137.38519257 74.52665962 133.35660636 66.63702393 129.88424683 C61.98004048 128.3226672 57.31176615 128.3209688 52.4375 128.25 C51.42880859 128.22035156 50.42011719 128.19070312 49.38085938 128.16015625 C46.9204963 128.09019332 44.46103989 128.03713811 42 128 C41.83876774 127.40254408 41.67753548 126.80508816 41.51141739 126.18952751 C37.58373507 111.63828819 33.64384188 97.09041536 29.69040298 82.54615593 C27.7788261 75.51251944 25.87136716 68.47781483 23.97363281 61.44042969 C22.31915453 55.30515496 20.65691654 49.17204467 18.98540854 43.04138672 C18.10099453 39.7965245 17.22044652 36.55072541 16.34918976 33.30230331 C15.3735356 29.67246632 14.38421125 26.04661787 13.39160156 22.42138672 C13.10675903 21.34892197 12.8219165 20.27645721 12.52844238 19.17149353 C10.23278295 10.87705437 7.32586987 4.88391325 0 0 Z " fill="#FEFEFE" transform="translate(423,0)"/>
<path d="M0 0 C3.64259801 0.10118328 4.87524988 0.87596099 7.48413086 3.4699707 C10.61125535 7.41299297 11.72817846 11.6113199 13.00390625 16.41796875 C13.28553116 17.42860886 13.56715607 18.43924896 13.85731506 19.48051453 C14.71490543 22.57425395 15.55673408 25.67193069 16.39463043 28.7710495 C17.29741033 32.09505488 18.2143275 35.41513076 19.13013268 38.73556709 C22.18196486 49.80094693 25.2010189 60.8750849 28.20922852 71.95239258 C29.66328664 77.3064578 31.12292612 82.65898482 32.5838995 88.01116657 C33.71457524 92.1564454 34.84180127 96.30265631 35.96801949 100.44914818 C36.50547849 102.42588151 37.04414892 104.40228588 37.58405876 106.37835121 C38.33169706 109.11626053 39.07454912 111.85542418 39.81616211 114.5949707 C40.03893326 115.40674774 40.26170441 116.21852478 40.4912262 117.05490112 C41.31654319 120.11954889 42 122.81081245 42 126 C36.06 126 30.12 126 24 126 C23.01 124.02 22.02 122.04 21 120 C15.49224678 115.75444022 10.90258586 114.2473816 4 115 C-2.44515806 116.51543376 -8.74845009 118.55375938 -14.98828125 120.75390625 C-32.98951574 126.77768761 -49.97561416 126.86076436 -68.70239258 126.48065186 C-72.69910773 126.40757651 -76.69616145 126.37676846 -80.69335938 126.34179688 C-88.46312383 126.26789239 -96.23127782 126.14928412 -104 126 C-102.28010706 123.09659166 -100.6245301 120.37586993 -98.3984375 117.8359375 C-97.91270264 117.27672607 -97.42696777 116.71751465 -96.92651367 116.14135742 C-96.1585144 115.2670105 -96.1585144 115.2670105 -95.375 114.375 C-94.29464023 113.1297148 -93.21522226 111.88361194 -92.13671875 110.63671875 C-91.60481934 110.02231934 -91.07291992 109.40791992 -90.52490234 108.77490234 C-84.45128098 101.70554158 -78.67540442 94.39079997 -73 87 C-70.31533799 89.68466201 -70.09780005 92.07781087 -69.1875 95.75 C-67.44310931 102.07909038 -65.9765451 106.57395727 -60.17041016 110.11621094 C-51.22590853 113.75840395 -40.56278105 109.96890505 -31.75244141 107.37451172 C-29.61235323 106.74628753 -27.46559299 106.14704506 -25.31640625 105.55078125 C-14.45942371 102.66436281 -14.45942371 102.66436281 -6.125 95.5 C-3.11262541 86.12816794 -5.39580452 76.97133399 -8.3125 67.875 C-8.62123047 66.86824219 -8.92996094 65.86148438 -9.24804688 64.82421875 C-9.85864754 62.83687427 -10.47757668 60.85206643 -11.10546875 58.87011719 C-12.22204525 55.28756442 -13.24043647 51.67940428 -14.24145508 48.06298828 C-15.773082 43.89747572 -18.60111145 41.71737874 -22.4375 39.75 C-25.2753231 38.91941763 -28.07318414 38.40839291 -31 38 C-27.21069153 32.69496814 -23.10779864 27.77002195 -18.8125 22.875 C-13.3318459 16.62618501 -8.13010835 10.20749897 -3.046875 3.6328125 C-1 1 -1 1 0 0 Z " fill="#556F7A" transform="translate(423,2)"/>
<path d="M0 0 C8.52995885 5.62614307 10.72995757 13.10874038 13.23535156 22.47827148 C13.8084921 24.61009245 14.41734194 26.72921619 15.03125 28.84960938 C17.57924573 37.91910566 19.86907551 47.24443533 16.75 56.4375 C11.40755864 63.80638464 3.22269115 65.48356552 -5.0625 67.9375 C-5.84125488 68.17178711 -6.62000977 68.40607422 -7.42236328 68.64746094 C-30.6585199 75.5429904 -30.6585199 75.5429904 -39.5625 71.25 C-43.96112805 67.18126906 -46.43687081 63.76851627 -47.9375 57.9375 C-48.25976562 56.71804687 -48.58203125 55.49859375 -48.9140625 54.2421875 C-49.17944824 53.22656738 -49.17944824 53.22656738 -49.45019531 52.19042969 C-50.13878778 49.65680479 -50.88913866 47.14613658 -51.6484375 44.6328125 C-51.92316895 43.71242187 -52.19790039 42.79203125 -52.48095703 41.84375 C-53.02428202 40.02649861 -53.57445118 38.21127569 -54.13232422 36.3984375 C-56.0133789 30.00309385 -57.20879217 24.30894755 -55 17.8125 C-50.13232762 10.58950228 -44.3322588 7.87051655 -36.0625 5.8125 C-35.14130371 5.56806152 -34.22010742 5.32362305 -33.27099609 5.07177734 C-31.41278714 4.58002196 -29.5525995 4.09567756 -27.69042969 3.61914062 C-25.31632239 3.00333724 -22.95842804 2.35018715 -20.6015625 1.671875 C-6.61327036 -2.29439992 -6.61327036 -2.29439992 0 0 Z " fill="#FDB001" transform="translate(401.0625,41.0625)"/>
<path d="M0 0 C1.05267563 0.00424484 1.05267563 0.00424484 2.12661743 0.00857544 C4.34761278 0.01968738 6.56819095 0.04477416 8.7890625 0.0703125 C10.30337955 0.08035396 11.81770299 0.08947777 13.33203125 0.09765625 C17.02617508 0.11959696 20.72007801 0.15406375 24.4140625 0.1953125 C22.10041957 1.73774112 20.02801765 2.8984698 17.5390625 4.0703125 C10.60568299 7.54965441 5.77091082 12.12722718 2.4140625 19.1953125 C-0.48964066 28.5873417 0.06254718 38.61085893 0 48.328125 C-0.01873709 50.17472169 -0.03831234 52.02131004 -0.0586853 53.8678894 C-0.10974431 58.69774434 -0.14950947 63.52762695 -0.18682861 68.35760498 C-0.22703382 73.2983673 -0.27805034 78.2390171 -0.328125 83.1796875 C-0.42457327 92.85149083 -0.50807557 102.52334166 -0.5859375 112.1953125 C-11.1459375 112.1953125 -21.7059375 112.1953125 -32.5859375 112.1953125 C-32.67648019 101.00737057 -32.74979279 89.81967391 -32.79318619 78.63144779 C-32.81401791 73.43571876 -32.84225474 68.24025445 -32.88769531 63.04467773 C-32.9313107 58.02610629 -32.95510779 53.00778871 -32.96544647 47.98904228 C-32.97280973 46.07896367 -32.9871883 44.16889819 -33.00885773 42.2589283 C-33.03810066 39.57344181 -33.04188485 36.88899045 -33.04003906 34.20336914 C-33.05442017 33.42221237 -33.06880127 32.6410556 -33.08361816 31.83622742 C-33.01685994 22.79855775 -28.76838187 14.67800803 -22.5859375 8.1953125 C-15.50978657 2.46578994 -9.18796529 -0.07350372 0 0 Z " fill="#E55000" transform="translate(48.5859375,127.8046875)"/>
<path d="M0 0 C10.56 0 21.12 0 32 0 C31.99887207 2.57264648 31.99774414 5.14529297 31.99658203 7.79589844 C31.99721196 16.33357623 32.03081469 24.8709008 32.0802784 33.40842819 C32.10924567 38.58051233 32.12739861 43.7521462 32.12011719 48.92431641 C32.11348878 53.92378059 32.13620764 58.92235781 32.17855453 63.92163849 C32.18962352 65.82079151 32.19044249 67.72003517 32.18042374 69.61919403 C32.12856715 80.9033187 32.53699509 89.36812295 39 99 C39.38995148 99.616474 39.77990295 100.232948 40.18167114 100.86810303 C43.43238953 105.37954396 48.1419522 107.60139321 53 110 C54.33354661 110.66623995 55.66691126 111.33284436 57 112 C52.60756315 112.09976706 48.21574728 112.17188558 43.82250977 112.21972656 C42.33183282 112.23969458 40.8412327 112.2668792 39.35083008 112.30175781 C30.87758215 112.49491264 23.45243035 112.60750621 16 108 C15.0251062 107.43236938 15.0251062 107.43236938 14.03051758 106.85327148 C6.56067124 102.32805407 2.35745745 94.18775317 0 86 C-0.38028978 83.05506656 -0.38183432 80.16334526 -0.34057617 77.19726562 C-0.34101425 76.35729034 -0.34145233 75.51731506 -0.34190369 74.65188599 C-0.33983034 71.90309588 -0.31656874 69.15493223 -0.29296875 66.40625 C-0.28736761 64.48954603 -0.28309996 62.57283774 -0.28010559 60.65612793 C-0.26869759 55.63207973 -0.23926547 50.60829521 -0.20599365 45.58435059 C-0.17520527 40.44949916 -0.16158157 35.31460479 -0.14648438 30.1796875 C-0.11439164 20.11965768 -0.061657 10.05989211 0 0 Z " fill="#E55000" transform="translate(16,368)"/>
<path d="M0 0 C9.89589316 5.65855593 14.91661534 11.43734603 18.5625 22.375 C19.46673174 33.77424936 18.21864609 42.22608943 10.9375 51.1875 C5.66021589 56.78161918 -1.6713587 60.99693157 -9.44140625 61.61328125 C-21.10545431 61.85654899 -28.87902392 59.76014204 -37.45703125 51.66796875 C-44.06368921 44.0188401 -45.80600449 35.79848528 -45.71484375 25.953125 C-45.33302364 21.02710774 -44.02320073 17.53950865 -41.4375 13.375 C-41.01339844 12.67761719 -40.58929688 11.98023438 -40.15234375 11.26171875 C-31.22107707 -1.94859492 -14.56021418 -6.9962287 0 0 Z " fill="#EBECED" transform="translate(141.4375,274.625)"/>
<path d="M0 0 C0.33 0 0.66 0 1 0 C1.89289043 18.05622869 -3.15327539 33.9882735 -14.98046875 47.828125 C-25.76959967 59.4311362 -40.78029238 68.34753504 -56.94843674 69.08940315 C-59.21934151 69.12254576 -61.48815119 69.12371557 -63.75927734 69.11352539 C-65.0480629 69.11374443 -65.0480629 69.11374443 -66.36288452 69.1139679 C-69.18726169 69.11327429 -72.01157193 69.1055078 -74.8359375 69.09765625 C-76.80034346 69.09579011 -78.7647499 69.09436713 -80.72915649 69.09336853 C-85.88793228 69.08955879 -91.04667971 69.07974171 -96.20544434 69.06866455 C-101.47419857 69.05841721 -106.74295741 69.0538638 -112.01171875 69.04882812 C-122.34116027 69.03811803 -132.67057333 69.02053376 -143 69 C-143 63.72 -143 58.44 -143 53 C-141.89912048 52.99413376 -140.79824097 52.98826752 -139.66400146 52.98222351 C-129.24856862 52.92481126 -118.83334087 52.85195409 -108.41811752 52.76428509 C-103.06456786 52.71971017 -97.71109204 52.6804261 -92.35742188 52.65356445 C-87.18309559 52.62740247 -82.00905547 52.58691018 -76.83490753 52.53681374 C-74.8687727 52.52023179 -72.90258847 52.50866387 -70.93639374 52.50238609 C-50.2205814 52.42960099 -32.75519318 48.92233674 -17.625 33.828125 C-8.51139241 24.00929778 -3.03529724 12.98021423 0 0 Z " fill="#ED6C00" transform="translate(191,315)"/>
<path d="M0 0 C9.89589316 5.65855593 14.91661534 11.43734603 18.5625 22.375 C18.5625 24.685 18.5625 26.995 18.5625 29.375 C-2.5575 29.375 -23.6775 29.375 -45.4375 29.375 C-45.4375 19.6962714 -42.15189596 12.41548142 -35.4375 5.375 C-25.05810061 -3.02914565 -12.44641426 -5.98054119 0 0 Z " fill="#FFFEFC" transform="translate(141.4375,274.625)"/>
<path d="M0 0 C-0.81791016 0.89138672 -0.81791016 0.89138672 -1.65234375 1.80078125 C-6.47587592 7.10254396 -11.10753026 12.51174034 -15.6171875 18.08203125 C-18.66069007 21.80907456 -21.774446 25.47340348 -24.89379883 29.13696289 C-28.75169101 33.67834259 -32.50252787 38.29791914 -36.22265625 42.953125 C-38 45 -38 45 -40 46 C-47.75859093 25.17232628 -47.75859093 25.17232628 -44.9375 16.875 C-40.00768392 9.55978904 -34.12121507 6.89573902 -25.75 4.8125 C-24.8206665 4.5662085 -23.89133301 4.31991699 -22.93383789 4.06616211 C-21.10833258 3.58314219 -19.28098172 3.10703127 -17.45166016 2.63867188 C-13.6250596 1.64181995 -9.84522655 0.48551143 -6.05859375 -0.65234375 C-3.73673071 -1.04446104 -2.21946896 -0.72975737 0 0 Z " fill="#FCC729" transform="translate(391,42)"/>
<path d="M0 0 C2.5264892 1.73276914 4.16584908 3.61130163 5.765625 6.2109375 C5.765625 7.2009375 5.765625 8.1909375 5.765625 9.2109375 C-13.704375 9.2109375 -33.174375 9.2109375 -53.234375 9.2109375 C-50.23998705 7.71374352 -47.89382641 6.72583943 -44.7421875 5.84375 C-43.87875732 5.59963379 -43.01532715 5.35551758 -42.12573242 5.10400391 C-40.7563855 4.72381104 -40.7563855 4.72381104 -39.359375 4.3359375 C-37.46213977 3.80504406 -35.56500452 3.27379321 -33.66796875 2.7421875 C-32.74097168 2.48308594 -31.81397461 2.22398438 -30.85888672 1.95703125 C-28.57026778 1.30642479 -26.29346319 0.62953031 -24.01953125 -0.0703125 C-15.19413233 -2.75338709 -8.45163597 -4.69165619 0 0 Z " fill="#E7E9EC" transform="translate(441.234375,118.7890625)"/>
</svg>
